<svg width="60" height="61" fill="none" xmlns="http://www.w3.org/2000/svg"><path d="M46.875 11.627h-6.656l-2.944-7.482h-14.55l-2.944 7.482h-6.656a5.632 5.632 0 00-3.977 1.643A5.605 5.605 0 007.5 17.238v33.67c0 1.488.593 2.915 1.648 3.968a5.632 5.632 0 003.977 1.643h33.75a5.632 5.632 0 003.977-1.643 5.605 5.605 0 001.648-3.968v-33.67a5.605 5.605 0 00-1.648-3.968 5.632 5.632 0 00-3.977-1.643zm-21.6-3.741h9.375l1.462 3.74h-12.3l1.463-3.74zM48.75 50.908a1.877 1.877 0 01-1.875 1.87h-33.75a1.877 1.877 0 01-1.875-1.87v-33.67a1.877 1.877 0 011.875-1.87h33.75a1.877 1.877 0 011.875 1.87v33.67zm-31.875-31.8h26.25v3.742H22.5a12.82 12.82 0 01-.262 5.611 2.717 2.717 0 01-1.355 1.58 2.727 2.727 0 01-3.66-1.191 2.71 2.71 0 01-.16-2.072 11.386 11.386 0 012.343-3.928h-2.531v-3.741zm20.063 14.965a66.136 66.136 0 00-.338-2.88 1.868 1.868 0 00-1.594-1.59h-.468a1.88 1.88 0 00-1.5.448l-.225.244a9.743 9.743 0 00-1.594-1.366 2.329 2.329 0 00-2.438 0 23.93 23.93 0 00-7.5 7.725 1.867 1.867 0 000 1.721 1.87 1.87 0 001.35 1.048h.357c.168 3.03.337 5.162.506 6.21a1.87 1.87 0 001.875 1.571h9.375a1.877 1.877 0 001.875-1.552c.169-1.067.337-3.218.506-6.23h.337a1.878 1.878 0 001.364-1.074 1.865 1.865 0 00-.107-1.731 21.831 21.831 0 00-1.782-2.544zm-3.582 4.583v.243a160.418 160.418 0 01-.3 4.545h-6.093c-.094-.954-.188-2.394-.3-4.545v-.28a3.028 3.028 0 00-.92-1.871 20.605 20.605 0 014.163-4.115c.431.411.994 1.01 1.5 1.59l1.463 1.702a1.874 1.874 0 001.294.655l.112.15a3.196 3.196 0 00-.919 1.889v.037z" fill="#242E30"/></svg>