<svg width="60" height="61" fill="none" xmlns="http://www.w3.org/2000/svg"><path d="M38.663 35.186a17.227 17.227 0 012.156 5.032c-1.5.15-6.619-2.301-12.544-8.193-5.925-5.892-8.419-11.223-8.231-12.476a17.41 17.41 0 014.819 1.87l1.706-3.31c-3.113-1.61-7.013-3.61-9.15-1.479v.131l-.544.711c-1.463 2.226-3.938 7.987-8.325 18.387-2.175 5.088-4.162 9.84-5.362 12.308a5.6 5.6 0 001.087 6.472l1.875 1.87a5.632 5.632 0 003.975 1.647c.88.005 1.748-.2 2.531-.599 2.531-1.272 7.332-3.385 12.431-5.611 10.2-4.49 15.788-7.015 17.888-8.436.114-.07.22-.152.319-.243l.15-.113.225-.168c2.062-2.076.394-5.611-1.631-9.446l-3.375 1.646zM23.513 48.28c-5.138 2.356-9.994 4.489-12.6 5.817a1.88 1.88 0 01-2.157-.355L6.881 51.87a1.869 1.869 0 01-.356-2.132c1.238-2.563 3.263-7.351 5.381-12.402 1.725-4.078 3.957-9.353 5.625-13.225a44 44 0 007.988 10.494 45.39 45.39 0 009.375 7.482c.394.225.769.412 1.162.599-3.506 1.72-8.625 3.984-12.543 5.686v-.093zM45.58 24.412l.375 3.74a16.408 16.408 0 00-10.331 4.284l-2.7-2.6a19.992 19.992 0 0112.656-5.424zM30.675 7.09l3.075-2.15c.281.393 6.788 9.895-3.113 22.334l-2.943-2.32c8.1-10.175 3.187-17.564 2.981-17.863zm9.787 15.413l-2.437-2.843c3.863-3.311 2.4-6.304 2.381-6.341l3.338-1.703c.225.412 1.612 2.45 5.475.393 2.325-1.272 3.15-4.863 3.262-6.154l3.75.318c0 .262-.6 6.64-5.231 9.128a8.77 8.77 0 01-6.712 1.085 10.64 10.64 0 01-3.825 6.117zm14.532 3.161a2.801 2.801 0 01-1.736 2.592 2.82 2.82 0 01-3.066-.608 2.804 2.804 0 011.99-4.79c.745 0 1.46.296 1.988.822.527.526.824 1.24.824 1.984zM23.119 10.701a2.8 2.8 0 011.723-2.606 2.819 2.819 0 013.071.597 2.804 2.804 0 01-1.982 4.796 2.816 2.816 0 01-1.982-.815 2.802 2.802 0 01-.83-1.972z" fill="#242E30"/></svg>