<svg xmlns="http://www.w3.org/2000/svg" width="32" height="32"><path d="M6.333 11H2.966l.689 2H7l-.667-2zM.956 10H6l-.667-2H.289l.667 2z" fill="#242e30"/><path d="M25.5 14a6.49 6.49 0 00-1.022.089l-2.05-7.12a1.003 1.003 0 01.615-1.216L24 5.402V3.27l-1.646.604a3.01 3.01 0 00-1.849 3.647L20.931 9h-.236a4.02 4.02 0 00-3.426 1.936l-3.059 5.08L12.415 10H14V8H7.333L8 10h2.327l1.761 5.9A6.497 6.497 0 1014 20.5c0-.193-.012-.382-.029-.57a3.958 3.958 0 00.765-.911l4.246-7.051A2.012 2.012 0 0120.695 11h.812l1.067 3.704A6.487 6.487 0 1025.5 14zm-18 11a4.5 4.5 0 114.194-6.096 1.961 1.961 0 01-.385.051H11.3l-3.988-.019.668 2.004 3.311.015h.018a3.938 3.938 0 00.651-.06A4.49 4.49 0 017.5 25zm18 0a4.489 4.489 0 01-2.356-8.316L24.387 21h2.08l-1.426-4.954A4.407 4.407 0 0125.5 16a4.5 4.5 0 010 9z" fill="#242e30"/></svg>