<svg width="60" height="61" fill="none" xmlns="http://www.w3.org/2000/svg"><path d="M35.625 10.373V6.54h7.5l-1.294-3.741H25.67l-1.294 3.74h7.5v3.835a24.41 24.41 0 00-12.412 4.538 24.326 24.326 0 00-8.213 10.333h4.144a20.603 20.603 0 019.745-9.337 20.67 20.67 0 0113.447-1.316 20.63 20.63 0 0111.378 7.27 20.545 20.545 0 014.426 12.736c0 4.62-1.56 9.106-4.426 12.736a20.63 20.63 0 01-11.378 7.27 20.67 20.67 0 01-13.447-1.317 20.603 20.603 0 01-9.745-9.337H11.25a24.325 24.325 0 007.821 10.076 24.428 24.428 0 0024.488 2.859 24.36 24.36 0 009.942-8.002A24.265 24.265 0 0055.878 24.4a24.332 24.332 0 00-8.218-9.756 24.413 24.413 0 00-12.035-4.27z" fill="#242E30"/><path d="M31.875 21.503v14.16l10.275 6.154 1.95-3.218-8.475-5.069V21.503h-3.75zM13.219 32.726h5.531v-3.74H1.875l1.688 3.74h9.655zm5.531 7.482v-3.741H7.5l1.688 3.741h9.562z" fill="#242E30"/></svg>