<?xml version="1.0" encoding="utf-8"?>
<svg version="1.1" id="Layer_1" xmlns="http://www.w3.org/2000/svg" xmlns:xlink="http://www.w3.org/1999/xlink" x="0px" y="0px"
	 viewBox="0 0 3978.785 4000" enable-background="new 0 0 3978.785 4000" xml:space="preserve">
<g>
	<g>
		<path fill="#513F33" d="M3582.694,2379.808l-28.86,0.462c-3.394-28.299-10.963-109.771,13.234-124.583
			c31.357-19.299,55.82,2.266,52.211,24.061c-2.297,13.867-1.073,7.239-9.74,52.319
			C3586.367,2373.955,3591.106,2365.513,3582.694,2379.808z"/>
		<path fill="#513F33" d="M3402.06,2410.027l-37.371-7.781c-12.139,39.654-19.046,58.167-25.245,75.314
			c76.525-37.324,44.051-26.227,76.447-35.519C3414.156,2437.574,3403.972,2414.394,3402.06,2410.027z"/>
		<path fill="#898B8C" d="M3595.362,2448.336c-39.85,39.607-46.63,46.773-63.706,41.289l-133.059-42.621
			c1.571-14.115,0.936-7.2,3.461-36.978c129.786,20.339,129.56,20.277,134.388,11.059c36.592-69.249,58.868-115.771,68.342-121.849
			c12.56-8.042,38.161-1.874,50.925,3.152c15.497,23.327,10.152,15.204,25.221,38.368
			C3636.632,2410.917,3619.348,2424.093,3595.362,2448.336z"/>
		<path fill="#383C3F" d="M3234.31,2499.468c-72.055,19.678-58.434,103.299,7.315,137.33c37.045,19.174,74.292,13.132,95.329-3.924
			C3403.914,2579.461,3327.096,2474.116,3234.31,2499.468z"/>
		<path fill="#4A4E51" d="M3328.569,2555.645c-14.916-28.387-52.042-42.497-81.697-34.386
			c-71.949,19.378-18.053,118.313,51.408,101.443C3329.336,2614.973,3343.187,2583.74,3328.569,2555.645z"/>
		<path fill="#898B8C" d="M3319.95,2558.222c-11.665-22.7-42.192-36.322-68.817-29.295c-25.515,6.716-35.697,30.168-24.096,53.313
			c12.483,24.851,42.966,38.514,67.467,32.281C3320.68,2607.885,3332.187,2582.085,3319.95,2558.222z"/>
		<path fill="#FF5F00" d="M3319.048,2466.554c41.663,21.031,104.22,66.645,109.915,114.611
			c5.832,52.747-59.23,101.826-112.957,105.118c-0.057-64.765-5.43-132.557-12.224-178.614
			C3316.588,2473.947,3313.22,2483.151,3319.048,2466.554z"/>
		<path fill="#383C3F" d="M3343.166,2106.126c-30.288,12.966-52.619,39.144-48.438,71.493
			c9.974,79.203,154.501,109.617,187.421,25.244C3508.505,2134.741,3423.237,2071.275,3343.166,2106.126z"/>
		<path fill="#4A4E51" d="M3331.797,2147.211c-8.802,12.482-9.665,27.304-4.933,39.8c19.775,52.212,113.563,58.788,128.792,1.484
			C3470.603,2126.068,3368.688,2094.729,3331.797,2147.211z"/>
		<path fill="#898B8C" d="M3354.508,2138.737c-39.176,24.98-17.058,73.584,29.688,80.938c24.088,3.79,44.835-5.356,55.317-20.49
			C3469.383,2155.515,3403.157,2107.477,3354.508,2138.737z"/>
		<path fill="#6F1E51" d="M3651.767,2636.838c10.873-28.588,13.195-43.525-11.624-59.343c-6.879-4.348-16.021-1.184-18.711,6.449
			c-2.38,6.749-0.81,2.625-13.473,35.932L3651.767,2636.838z"/>
		<path fill="#FF6D00" d="M3622.586,2580.667c-9.899-18.899-54.079-21.451-91.999-23.612
			c-50.016-2.893-85.382,9.409-182.072-103.806c12.01-37.073,30.368-95.965,37.935-134.43c36.118-10.949,66.698-4.796,90.208,8.224
			c56.931,31.315,37.623,60.141,77.174,53.229c9.796-40.532,21.356-96.295,27.194-137.071
			c9.973-98.295-56.623-159.595-153.125-184.342c-18.188-4.653-30.314-6.13-30.314-6.13
			c-5.439,143.972-30.22,276.659-78.537,413.826c46.004,34.507,94.42,113.132,118.532,165.645
			c25.269-1.823,16.444-1.146,41.263-3.176c21.949-26.277,100.905-25.661,134.481-23.264
			C3620.253,2587.528,3618.056,2593.521,3622.586,2580.667z"/>
		<path fill="#DE6E41" d="M3652.192,2652.976c1.651-4.051,0.527-1.104,8.529-22.14l-55.541-21.184
			c-7.846,20.631-6.591,17.354-8.238,21.389L3652.192,2652.976z"/>
		<path fill="#E8D1A0" d="M3810.406,2436.051l-15.598,25.706c10.254,11.752,6.713,7.67,16.692,19.25
			c-5.656,5.985-12.048,16.547-14.334,26.48c-4.243,18.594,0.332,28.95,40.996,45.623c33.083,13.556,60.383,26.67,83.43-14.792
			c5.28-9.35,9.212-20.132,11.359-30.927C3947.436,2438.038,3877.649,2437.768,3810.406,2436.051z"/>
		<path fill="#FF6D00" d="M3839.933,2436.779c4.604-6.163,17.026-18.276,32.139-22.793c23.104-6.814,102.072-5.462,93.626,78.105
			c-6.256,63.216-49.8,90.369-79.008,92.479c9.668-80.854,5.363-46.66,9.276-81.425c1.75-14.786-7.332-27.623-20.308-29.623
			C3863.52,2471.625,3837.486,2472.125,3839.933,2436.779z"/>
		<path fill="#FFB680" d="M3916.796,2414.376c72.993,17.898,53.23,111.923,20.174,144.762
			C3961.044,2521.677,3975.161,2446.405,3916.796,2414.376z"/>
		<path fill="#6F1E51" d="M3632.329,2410.507c13.681-56.067,16.344-71.385,23.38-108.118
			c161.747,7.459,198.326,156.647,135.124,167.171C3749.424,2476.464,3735.808,2445.692,3632.329,2410.507z"/>
		<path fill="#E8D1A0" d="M3646.107,2561.944c-7.575,14.233-4.35,27.229-6.956,31.959c-2.113,3.833-8.147-2.71-11.307,0.466
			c-3.229,3.115,1.634,17.197,6.968,17.943c5.288,0.733,22.575-2.662,28.141-10.544c4.506-6.359,7.677-23.579,8.677-31.087
			c-2.423-6.67-4.163-11.013-7.12-18.551C3653.228,2558.25,3657.28,2556.087,3646.107,2561.944z"/>
		<path fill="#6F1E51" d="M3801.66,2466.207c-11.137,7.695-79.949,29.911-98.681,35.711c-14.621,33.718-26.56,59.063-31.346,68.764
			l-25.523-8.737c7.845-19.09,29.112-79.641,32.887-92.188c51.002-32.645,89.238-59.858,89.238-59.858
			C3779.395,2422.909,3809.115,2461.078,3801.66,2466.207z"/>
		<path fill="#6F1E51" d="M3885,2588.038c-1.817-2.775,1.77-36.602,4.438-76.179c1.518-23.197,4.131-26.949-18.998-33.438
			c-11.275-3.137-25.846-5.833-30.667-20.267c-4.832-14.42-1.389-29.61,4.987-30.575c6.366-0.948,5.694,5.894,5.392,14.195
			c-0.303,8.307,5.467,11.87,15.352,18.669c9.876,6.856,32.008,4.797,38.534,19.28c6.537,13.896-0.865,76.76-2.686,91.279
			C3898.593,2594.267,3887.691,2592.036,3885,2588.038z"/>
		<path fill="#6F1E51" d="M3597.991,2059.784c-1.232,32.415-2.55,80.337-16.962,183.412l-18.364-2.79
			c8.696-62.217,13.892-105.767,16.762-181.276L3597.991,2059.784z"/>
		<path fill="#B78B51" d="M3739.612,2081.972c-2.416,62.887-8.735,117.609-16.982,176.538l-140.829-20.886
			c7.714-55.112,13.467-105.647,15.586-162.057L3739.612,2081.972z"/>
		<path fill="#CE9A5D" d="M3767.025,2076.979c-2.769,72.088-8.802,123.518-18.355,191.695l-45.362-6.893
			c7.577-54.119,14.922-109.484,17.873-186.707L3767.025,2076.979z"/>
	</g>
	<g>
		<path fill="#513F33" d="M3227.664,3065.514l-25.767-13.04c10.338-26.806,41.425-102.227,69.857-104.067
			c17.395-1.069,34.334,5.222,39.252,22.093c4.488,15.676-1.284,20.402-37.387,65.231
			C3267.358,3040.028,3239.556,3058.179,3227.664,3065.514z"/>
		<path fill="#513F33" d="M3053.659,3008.224l-29.468-24.269c-30.113,30.347-44.408,43.097-57.499,55.085
			c84.885,2.353,51.604-2.749,84.28,3.987C3051.539,3037.872,3053.46,3010.958,3053.659,3008.224z"/>
		<path fill="#898B8C" d="M3206.935,3132.045c-55.809,17.818-63.994,18.758-75.6,6.944l-97.993-99.593
			c8.235-12.177,4.027-5.729,20.315-31.174c107.366,79.781,105.443,78.063,113.824,72.291
			c55.894-37.792,104.811-74.934,117.321-75.984c14.944-1.245,34.623,16.157,43.544,26.506c1.467,12.61,3.316,33.793,4.387,45.665
			C3255.869,3119.586,3248.49,3118.93,3206.935,3132.045z"/>
		<path fill="#383C3F" d="M2920.993,3044.854c-39.856-45.71-108.08-51.709-129.134-2.963
			c-26.172,58.92,31.794,146.5,100.396,133.765C2947.64,3164.813,2965.558,3095.965,2920.993,3044.854z"/>
		<path fill="#4A4E51" d="M2864.281,3034.919c-49.693-11.326-71.14,43.913-40.003,86.871c13.836,19.089,36.787,31.882,59.714,27.583
			C2941.804,3138.442,2927.495,3048.617,2864.281,3034.919z"/>
		<path fill="#898B8C" d="M2897.757,3064.632c-28.754-34.48-78.678-27.928-79.435,15.22c-0.666,26.343,18.89,53.521,44.824,59.873
			C2905.088,3149.639,2928.574,3101.586,2897.757,3064.632z"/>
		<path fill="#FF5F00" d="M2953.747,3019.813c27.157,38.049,61.301,107.598,44.058,152.617
			c-18.096,47.248-97.125,63.946-148.92,40.854c31.309-60.303,56.463-119.465,72.176-164.058
			C2950.606,3022.979,2941.957,3030.812,2953.747,3019.813z"/>
		<path fill="#383C3F" d="M3241.51,2785.126c-32.031-102.53-204.135-97.433-175.036,12.663
			c18.447,67.806,103.746,107.974,154.842,64.281C3242.032,2844.001,3250.617,2814.477,3241.51,2785.126z"/>
		<path fill="#4A4E51" d="M3183.309,2749.49c-48.045-30.687-104.781-3.912-90.137,47.806c9.573,33.48,43.669,58.133,75.878,55.949
			C3223.393,2849.706,3234.817,2782.387,3183.309,2749.49z"/>
		<path fill="#898B8C" d="M3178.696,2756.536c-30.831-19.961-72.813-12.82-77.705,22.098c-5.238,39.402,45.47,80.246,84.318,60.284
			C3214.467,2824.174,3214.828,2779.93,3178.696,2756.536z"/>
		<path fill="#6F1E51" d="M3169.336,3325.147c10.27-9.11,20.11-16.172,23.287-30.241c4.729-20.583-12.331-43.037-25.615-30.678
			c-5.419,5.027-2.648,2.526-14.254,12.831c-7.174,6.365-14.347,12.729-14.347,12.729L3169.336,3325.147z"/>
		<path fill="#FF6D00" d="M3169.551,3261.863c0.001-21.309-37.781-44.022-70.51-63.639c-42.212-25.395-80.3-31.172-112.978-176.542
			c24.588-24.038,61-59.758,96.33-101.606c37.132,7.153,61.315,26.853,76.026,49.319c35.064,53.201,5.494,70.848,43.477,83.081
			c66.769-75.217,100.997-119.751,111.448-159.429c20.685-78.75-33.829-159.28-96.854-203.107
			c-61.501,109.988-150.922,225.778-262.74,329.875c24.743,52.134,30.954,144.205,28.002,201.858
			c23.226,10.082,15.11,6.601,38.015,16.287c31.505-13.062,101.89,24.458,129.933,41.812
			C3165.049,3266.145,3160.878,3269.933,3169.551,3261.863z"/>
		<path fill="#DE6E41" d="M3162.208,3339.605c4.458-3.69,7.127-6.124,17.835-15.618l-39.359-44.547
			c-10.204,9.052-12.928,11.536-17.235,15.096L3162.208,3339.605z"/>
		<path fill="#E8D1A0" d="M3402.966,3221.346l-25.788,15.422c3.664,15.222,2.41,9.919,5.86,24.824
			c-13.229,4.503-28.317,15.871-32.89,30.512c-5.606,18.514,36.861,62.052,50.911,75.117c21.682,17.347,56.143,0.216,77.181-25.728
			C3522.844,3286.691,3462.198,3254.51,3402.966,3221.346z"/>
		<path fill="#FF6D00" d="M3428.758,3235.757c50.103-23.877,145.286,35.299,76.4,119.956c-31.522,38.209-76.464,44.304-103.66,32.41
			c46.788-67.968,52.767-73.175,50.97-87.127c-0.795-6.413-3.939-12.227-9.213-16.149
			C3433.312,3277.45,3410.147,3265.77,3428.758,3235.757z"/>
		<path fill="#FFB680" d="M3507.16,3251.79c56.345,49.94-5.116,123.762-49.374,137.285
			C3494.548,3368.303,3544.614,3308.428,3507.16,3251.79z"/>
		<path fill="#6F1E51" d="M3257.262,3115.774c33.814-38.107,58.402-68.208,71.081-84.74
			c139.592,81.95,102.686,231.169,41.732,210.816C3330.376,3228.705,3331.684,3194.292,3257.262,3115.774z"/>
		<path fill="#E8D1A0" d="M3199.057,3256.207c-13.363,9.127-16.452,22.074-20.979,25.071c-3.655,2.406-5.94-6.165-10.25-4.863
			c-4.302,1.262-6.521,15.997-2.144,19.133c4.354,3.116,21.193,8.093,29.819,3.75c6.946-3.542,17.747-17.338,22.094-23.495
			c1.513-12.089,1.01-7.819,2.314-19.72C3207.146,3256.254,3211.607,3256.226,3199.057,3256.207z"/>
		<path fill="#6F1E51" d="M3381.201,3243.919c-13.35,1.677-86.596-11.142-103.915-14.368c-29.573,23.778-50.68,39.694-59.686,46.254
			l-18.541-19.596c8.398-7.015,48.667-43.293,71.937-66.283c60.377-5.099,106.78-11.389,106.78-11.389
			C3381.046,3192.923,3390.48,3242.715,3381.201,3243.919z"/>
		<path fill="#6F1E51" d="M3398.401,3390.408c-0.244-2.367,11.087-20.484,22.9-38.885c30.031-47.899,34.14-46.725,15.053-64.785
			c-8.518-8.026-20.158-17.198-17.7-32.187c2.415-15.006,12.634-26.729,18.598-24.718c6.037,2.1,2.398,7.951-1.78,15.1
			c-4.139,7.191-0.693,13.027,4.888,23.637c5.546,10.656,26.091,19.159,25.122,34.983c-1.16,16.126-35.591,66.318-44.714,79.413
			C3407.53,3402.228,3398.936,3395.2,3398.401,3390.408z"/>
		<path fill="#6F1E51" d="M3390.508,2789.583c-38.432,67.153-71.762,114.545-100.683,154.204l-14.941-11.034
			c35.422-48.571,65.819-93.543,99.505-152.399L3390.508,2789.583z"/>
		<path fill="#B78B51" d="M3505.365,2875.173c-0.363,0.613-36.095,64.181-97.408,148.236l-114.822-84.172
			c34.219-46.917,57.975-82.89,89.392-136.036L3505.365,2875.173z"/>
		<path fill="#CE9A5D" d="M3532.003,2883.563c-0.318,0.537-35.422,64.464-105.781,160.963l-36.909-27.258
			c0.36-0.493,42.747-54.82,103.019-156.76L3532.003,2883.563z"/>
	</g>
	<g>
		<path fill="#513F33" d="M2594.934,3508.357l-16.763-23.505c21.25-18.716,84.161-71.262,110.089-59.789
			c15.696,6.948,28.129,20.735,24.546,37.778c-3.575,17.161-14.062,18.943-63.338,40.502
			C2646.268,3503.717,2613.305,3507.055,2594.934,3508.357z"/>
		<path fill="#513F33" d="M2467.53,3376.782l-14.805-35.187c-42.132,13.306-62.859,18.424-76.339,21.951
			c74.21,41.883,46.534,21.337,72.637,42.796C2452.052,3401.808,2466.09,3379.105,2467.53,3376.782z"/>
		<path fill="#898B8C" d="M2545.697,3557.665c-58.098-10.15-65.418-13.313-70.148-29.007l-40.429-133.742
			c12.918-6.927,5.788-2.95,32.41-18.136c57.82,120.282,57.009,118.146,67.167,116.917c64.651-7.176,127.64-17.75,139.121-12.863
			c13.754,5.819,23.171,30.249,26.315,43.726c-10.451,26.027-6.731,16.884-17.299,42.486
			C2595.761,3569.515,2587.259,3565.098,2545.697,3557.665z"/>
		<path fill="#383C3F" d="M2335.746,3383.156c5.038-47.315-24.179-95.774-62.545-108.132c-50.263-16.7-91.059,38.13-83.473,98.45
			C2202.556,3475.443,2325.632,3478.402,2335.746,3383.156z"/>
		<path fill="#4A4E51" d="M2311.31,3352.353c-11.428-51.906-66.897-72.447-91.341-27.912c-15.518,27.854-9.69,67.049,13.536,87.599
			C2271.64,3445.359,2323.775,3408.974,2311.31,3352.353z"/>
		<path fill="#898B8C" d="M2298.914,3393.313c12.475-23.572,5.158-56.237-14.94-73.285c-20.703-17.818-45.638-11.445-57.601,10.357
			c-13.19,24.162-7.582,57.086,11.721,73.868C2258.929,3422.452,2286.479,3416.381,2298.914,3393.313z"/>
		<path fill="#FF5F00" d="M2373.871,3340.51c6.403,46.768,4.146,123.696-31.979,155.546
			c-35.709,31.201-112.996,14.875-150.688-33.304c36.246-24.195,98.695-72.943,140.147-111.487
			C2366.683,3342.636,2356.574,3345.207,2373.871,3340.51z"/>
		<path fill="#383C3F" d="M2724.332,3297.226c42.729-61.822-17.786-155.79-85.761-155.824
			c-99.802-0.03-78.178,186.105,28.474,185.697C2691.538,3326.948,2712.012,3315.053,2724.332,3297.226z"/>
		<path fill="#4A4E51" d="M2701.975,3207.851c-20.392-35.539-62.447-49.657-86.652-27.262
			c-41.563,36.382-1.271,130.049,59.541,116.254C2710.198,3287.876,2723.233,3244.9,2701.975,3207.851z"/>
		<path fill="#898B8C" d="M2702.224,3253.262c5.345-28.204-12.854-58.844-38.444-69.639
			c-62.342-25.714-78.498,74.336-20.166,100.221C2671.468,3296.112,2697.417,3279.724,2702.224,3253.262z"/>
		<path fill="#6F1E51" d="M2422.512,3711.087c29.692-7.243,43.324-13.823,42.263-43.242c-0.325-8.131-8.119-13.865-15.932-11.753
			c-9.723,2.629-4.501,1.313-37.23,9.3L2422.512,3711.087z"/>
		<path fill="#FF6D00" d="M2452.197,3655.185c9.921-18.825-12.897-56.477-32.777-89.152c-26.48-43.494-55.901-64.973-17.871-208.818
			c63.195-18.834,106.061-34.342,132.206-45.071c29.524,23.55,41.814,52.219,44.434,78.955c6.513,64.444-28.137,65.128-0.021,93.754
			c118.307-44.968,198.021-72.981,209.508-174.158c5.661-51.383-12.261-108.925-28.7-140.232
			c-115.712,71.999-238.575,131.604-385.105,170.051c-2.339,57.669-39.783,142.415-69.11,191.595
			c15.85,19.794,10.276,12.897,26.044,32.208c33.594,2.728,78.801,69.179,95.478,97.497
			C2442.209,3657.922,2436.701,3659.326,2452.197,3655.185z"/>
		<path fill="#DE6E41" d="M2409.473,3720.625c1.326-0.257,0.945-0.172,23.064-5.565l-14.082-57.751
			c-21.206,5.171-20.912,5.116-22.28,5.379L2409.473,3720.625z"/>
		<path fill="#E8D1A0" d="M2677.869,3727.759l-30.026,1.727c-1.961,7.928-3.473,13.636-6.368,24.688
			c-13.781-2.138-32.505,0.935-43.364,11.764c-13.594,13.796,3.763,72.091,10.128,90.185c13.573,30.997,66.35,24.537,94.621,5.282
			C2749.264,3829.8,2707.647,3773.408,2677.869,3727.759z"/>
		<path fill="#FF6D00" d="M2694.031,3752.487c63.651,2.339,111.577,114.089-1.388,146.378c-44.456,12.71-79.834-6.641-93.764-24.021
			c72.386-38.066,44.263-23.609,72.31-38.562c13.171-6.938,18.568-21.752,12.858-33.547
			C2678.57,3791.35,2663.709,3770.401,2694.031,3752.487z"/>
		<path fill="#FFB680" d="M2756.102,3803.051c26.733,70.361-62.111,107.347-107.741,98.771
			C2693.39,3900.399,2762.771,3868.751,2756.102,3803.051z"/>
		<path fill="#6F1E51" d="M2597.824,3566.632c51.539-19.591,65.098-25.795,102.305-42.074
			c85.703,137.369-16.173,252.381-60.958,206.106C2610.08,3700.581,2627.277,3670.701,2597.824,3566.632z"/>
		<path fill="#E8D1A0" d="M2480.966,3663.938c-16.004,1.832-24.904,11.858-30.266,12.393c-4.355,0.438-2.396-8.257-6.799-9.036
			c-4.389-0.859-13.232,11.102-10.816,15.926c2.455,4.858,15.105,17.13,24.649,17.171c7.793,0.105,23.774-7.047,30.525-10.482
			c4.692-6.674,3.035-4.264,11.228-16.404C2486.172,3666.736,2488.736,3668.071,2480.966,3663.938z"/>
		<path fill="#6F1E51" d="M2648.078,3737.678c-12.687-4.819-70.381-49.149-85.414-60.989c-42.171,8.283-72.617,12.989-74.406,13.224
			l-7.292-25.973c10.231-2.324,62.191-15.356,94.562-25.258c55.753,23.456,99.929,39.493,99.929,39.493
			C2672.847,3687.994,2657.286,3741.106,2648.078,3737.678z"/>
		<path fill="#6F1E51" d="M2595.07,3875.437c0.884-2.225,19.385-13.002,38.44-23.822c49.04-28.479,52.024-25.634,43.541-50.399
			c-3.817-11.063-9.867-24.591-0.716-36.743c9.128-12.167,23.613-17.896,28-13.257c4.388,4.691-1.596,8.096-8.617,12.519
			c-7.014,4.459-6.674,11.231-6.662,23.226c-0.041,12.019,14.219,29.078,5.994,42.662c-8.469,13.7-62.485,42.24-76.675,49.601
			C2597.65,3890.141,2593.311,3879.936,2595.07,3875.437z"/>
		<path fill="#6F1E51" d="M2867.065,3339.365c-17.962,11.21-64.377,42.202-160.632,90.031l-8.127-16.702
			c29.535-14.676,70.718-34.037,158.747-88.974L2867.065,3339.365z"/>
		<path fill="#B78B51" d="M2929.212,3468.39c-0.548,0.342-57.211,37.681-154.998,86.292l-62.747-127.796
			c46.547-23.225,85.529-43.782,142.203-79.171L2929.212,3468.39z"/>
		<path fill="#CE9A5D" d="M2948.927,3488.149c-57.687,35.962-93.979,56.784-168.309,93.724l-20.075-41.259
			c61.031-30.329,99.042-50.828,163.901-91.27L2948.927,3488.149z"/>
	</g>
	<g>
		<path fill="#513F33" d="M1828.768,3605.708l-3.956-28.561c27.109-6.76,107.956-23.783,125.343-1.904
			c22.926,28.639,4.476,55.65-17.628,54.814c-3.542-0.134-39.977-2.358-53.111-3.526
			C1843.204,3612.076,1853.392,3616.311,1828.768,3605.708z"/>
		<path fill="#513F33" d="M1776.853,3430.06l3.186-38.028c-37.726-6.537-64.09-12.781-77.869-15.893
			c46.835,71.918,31.622,41.059,44.574,71.502C1755.006,3443.11,1760.886,3439.548,1776.853,3430.06z"/>
		<path fill="#898B8C" d="M1721.876,3593.393c-14.994-12.956-9.851-17.015,17.831-162.284c22.808-0.366,14.874-0.149,37.146-1.051
			c-4.427,131.28-4.788,130.993,5.321,134.785c81.382,30.316,123.033,45.57,129.263,53.061c9.528,11.475,6.43,37.708,3.001,50.901
			c-11.495,9.876-25.402,21.895-35.048,29.743C1820.073,3668.19,1796.359,3658.976,1721.876,3593.393z"/>
		<path fill="#383C3F" d="M1671.495,3341.865c14.947-58.715-18.644-118.26-70.614-107.914
			c-64.602,12.715-101.847,110.674-53.154,158.578C1588.094,3432.081,1654.8,3407.459,1671.495,3341.865z"/>
		<path fill="#4A4E51" d="M1623.341,3374.838c26.462-18.357,35.83-56.956,24.21-85.269c-27.469-69.018-119.665-3.808-94.404,63.305
			C1564.117,3381.862,1596.272,3393.185,1623.341,3374.838z"/>
		<path fill="#898B8C" d="M1642.096,3333.989c12.014-43.155-21.492-80.621-57.445-56.706c-22.597,14.921-33.16,46.647-23.856,70.886
			C1576.358,3388.287,1629.173,3380.405,1642.096,3333.989z"/>
		<path fill="#FF5F00" d="M1710.62,3354.547c-13.32,36.983-41.69,88.4-75.468,111.617c-60.962,41.026-131.633-26.697-142.947-87.961
			c71.583-8.863,116.56-18.962,175.739-33.793C1695.513,3351.115,1700.656,3352.485,1710.62,3354.547z"/>
		<path fill="#383C3F" d="M2087.826,3388.352c-3.415-63.754-56.315-114.453-106.546-87.373
			c-59.401,30.742-71.899,142.095-4.337,177.813C2030.462,3505.977,2091.722,3460.861,2087.826,3388.352z"/>
		<path fill="#4A4E51" d="M2046.696,3342.765c-19.681-24.144-51.25-26.998-73.927-0.268c-27.979,33.395-21.172,90.5,14.682,108.904
			C2043.192,3480.173,2090.94,3396.376,2046.696,3342.765z"/>
		<path fill="#898B8C" d="M2042.643,3429.719c16.993-20.884,17.107-56.434-1.578-79.53c-16.662-20.517-44.124-22.667-62.72-0.097
			c-17.774,21.193-19.843,56.769-2.04,79.519C1993.681,3451.377,2023.984,3452.759,2042.643,3429.719z"/>
		<path fill="#6F1E51" d="M1582.009,3705.497c13.537,3.307,24.569,7.274,38.14,1.994c19.569-7.816,28.467-34.638,10.675-38.517
			c-2.202-0.436-3.891-0.87-18.659-4.47c-9.32-2.275-18.641-4.55-18.641-4.55L1582.009,3705.497z"/>
		<path fill="#FF6D00" d="M1634.218,3669.713c17.475-12.095,14.707-55.298,12.272-94.229c-3.183-50.351-6.979-61.31,9.608-95.457
			c15.651-32.207,48.999-74.335,71.32-97.866c17.208,4.046,68.363,13.368,138.181,21.375
			c23.872,54.909,6.511,106.503-36.191,144.063c-11.698,10.293-6.392,23.644-4.597,29.547
			c36.737,4.204,131.957,14.279,168.665,7.789c99.482-17.592,138.013-122.783,138.157-202.117
			c-129.145,11.677-271.995,4.097-421.013-28.269c-28.789,50.042-100.918,107.47-150.017,137.773
			c4.877,24.818,3.142,16.195,8.17,40.542c28.622,18.533,37.748,97.671,39.422,130.67
			C1623.728,3667.323,1627.858,3668.39,1634.218,3669.713z"/>
		<path fill="#DE6E41" d="M1566.055,3707.828c9.257,2.499,3.984,1.161,23.003,5.811l14.28-57.703
			c-18.169-4.437-13.093-3.144-22.222-5.612L1566.055,3707.828z"/>
		<path fill="#E8D1A0" d="M1800.477,3838.557c-16.588-7.405-20.769-9.218-27.373-12.412l-17.081,18.936
			c-10.903-8.005-29.545-14.292-43.846-9.674c-18.446,5.985-30.083,65.719-32.825,84.668c-2.269,31.89,43.815,52.328,81.304,48.562
			C1816.312,3962.4,1805.607,3892.017,1800.477,3838.557z"/>
		<path fill="#FF6D00" d="M1803.322,3867.932c42.538,24.129,41.09,91.966,8.483,117.199
			c-42.444,32.311-136.997,10.746-149.403-52.854c5.792,0.083,43.236,0.06,81.878-0.671c14.892-0.198,26.486-10.456,26.911-23.662
			C1771.606,3895.665,1767.959,3869.912,1803.322,3867.932z"/>
		<path fill="#FFB680" d="M1834.789,3941.553c-8.795,73.313-102.25,67.485-141.074,37.532
			C1738.816,4000.179,1811.065,4000.905,1834.789,3941.553z"/>
		<path fill="#6F1E51" d="M1804.289,3658.769c33.365,3.815,52.297,6.365,110.149,10.032
			c11.997,160.533-131.005,217.087-149.557,154.357C1753.065,3783.112,1782.085,3764.896,1804.289,3658.769z"/>
		<path fill="#E8D1A0" d="M1655.671,3690.725c0,0-2.953-1.128-11.726-2.552c-8.778-1.427-16.777,1.237-20.855-0.399
			c-4.042-1.718,1.704-8.432-1.818-11.246c-3.486-2.818-16.878,3.742-16.97,9.125c-0.094,5.377,5.411,21.971,13.872,26.705
			c6.853,3.678,24.314,4.698,31.924,4.761c13.705-7.126,11.173-5.787,17.532-9.25
			C1663.271,3701.784,1664.85,3704.048,1655.671,3690.725z"/>
		<path fill="#6F1E51" d="M1769.519,3833.479c-9.468-10.632-41.534-80.559-47.384-93.565c-27.627-8.079-54.974-16.899-72.038-22.792
			l5.573-26.395c31.337,8.187,65.212,15.373,95.465,21.548c35.656,43.334,70.196,81.195,70.196,81.195
			C1814.48,3800.991,1776.141,3840.902,1769.519,3833.479z"/>
		<path fill="#6F1E51" d="M1658.76,3931c2.868-2.646,79.147-3.88,94.09-6.12c14.817-2.223,11-24.64,16.56-39.907
			c7.988-21.887,41.143-22.302,43.62-13.401c1.709,6.196-5.16,6.382-13.431,7.118c-8.277,0.735-11.115,6.902-16.664,17.553
			c-5.607,10.649-0.891,32.342-14.467,40.619c-10.569,6.421-101.768,14.682-110.416,2.436
			C1655.81,3936.122,1656.943,3932.599,1658.76,3931z"/>
		<path fill="#6F1E51" d="M2148.441,3582.64c-3.3,0.294-92.668,8.422-184.197,4.91l0.569-18.565
			c49.683,1.91,123.731,0.35,182.071-4.854L2148.441,3582.64z"/>
		<path fill="#B78B51" d="M2143.238,3725.937c-87.439,5.552-154.212,5.355-177.23,4.141l3.862-142.317
			c34.459,1.323,90.377,0.77,162.838-3.803L2143.238,3725.937z"/>
		<path fill="#CE9A5D" d="M2151.457,3752.599c-69.29,5.298-142.957,6.292-192.411,4.438l1.405-45.862
			c90.785,3.423,186.149-4.222,187.451-4.322L2151.457,3752.599z"/>
	</g>
	<g>
		<path fill="#513F33" d="M1105.209,3336.305l9.856-27.15c27.961,7.203,106.423,28.703,111.686,56.833
			c3.147,17.155-1.038,34.698-17.202,41.615c-15.126,6.426-20.967,0.87-69.248-29.268
			C1134.346,3371.565,1113.345,3346.513,1105.209,3336.305z"/>
		<path fill="#513F33" d="M1141.222,3156.693l20.563-32.167c-33.996-26.507-46.01-37.111-61.558-50.478
			c7.811,84.816,8.929,50.622,6.121,84.162C1119.929,3157.729,1127.231,3157.356,1141.222,3156.693z"/>
		<path fill="#898B8C" d="M1029.036,3305.999c-22.961-55.011-31.625-27.292,78.811-165.733c12.078,6.217,4.582,2.515,33.376,16.427
			c-73.707,129.058-69.31,109.662-43.278,138.635c79.804,88.516,84.981,89.444,65.674,120.552
			c-5.756,9.284-12.077,16.223-12.077,16.223c-15.382,3.633-26.794,6.004-44.809,9.847
			C1063.845,3382.725,1053.38,3364.391,1029.036,3305.999z"/>
		<path fill="#383C3F" d="M1108.444,2999.423c30.764-69.193-21.282-124.313-92.763-92.966
			c-47.33,20.808-72.746,70.113-60.015,110.047C977.289,3083.342,1074.286,3076.716,1108.444,2999.423z"/>
		<path fill="#4A4E51" d="M1030.945,3036.083c31.887-3.872,58.231-33.591,61.105-64.211c7.479-74.018-104.442-59.197-113.162,12.02
			C975.125,3014.764,998.551,3039.777,1030.945,3036.083z"/>
		<path fill="#898B8C" d="M1031.599,3027.083c25.065-2.736,48.836-26.202,51.776-53.973c6.541-62.783-88.437-50.187-95.528,10.185
			C984.869,3009.749,1004.53,3030.084,1031.599,3027.083z"/>
		<path fill="#FF5F00" d="M1117.762,3058.894c-34.797,31.774-99.55,73.699-146.239,62.03
			c-50.772-12.925-74.512-90.842-58.439-142.969c70.616,26.529,140.992,45.713,171.57,52.006
			C1111.704,3053.944,1104.26,3047.499,1117.762,3058.894z"/>
		<path fill="#383C3F" d="M1385.148,3316.25c97.361-43.981,72.433-214.415-33.578-172.178
			c-64.949,26.442-94.755,115.908-45.198,161.44C1327.261,3324.184,1357.537,3328.652,1385.148,3316.25z"/>
		<path fill="#4A4E51" d="M1413.495,3254.171c24.703-51.489-8.756-104.399-58.236-83.672
			c-31.873,13.458-52.467,50.161-46.404,82.063C1318.873,3306.138,1387.066,3309.262,1413.495,3254.171z"/>
		<path fill="#898B8C" d="M1405.952,3250.445c16.261-33.361,3.624-73.909-31.249-74.435c-39.487-0.445-74.231,54.687-49.685,90.968
			C1343.454,3294.438,1387.282,3288.745,1405.952,3250.445z"/>
		<path fill="#6F1E51" d="M840.465,3309.514c22.912,20.336,36.025,27.724,59.581,10.169c6.507-4.888,6.797-14.557,0.621-19.781
			c-5.4-4.569-2.083-1.619-28.804-25.331L840.465,3309.514z"/>
		<path fill="#FF6D00" d="M903.319,3302.144c21.059-2.532,38.995-42.359,54.733-77.629c20.73-46.361,21.481-82.998,161.732-133.326
			c30.173,24.279,68.14,54.399,112.373,83.416c-2.66,37.727-19.309,64.102-39.841,81.403
			c-49.567,42.023-69.608,13.699-77.252,53.145c26.867,18.63,54.513,36.696,99.52,63.299c16.45,9.686,37.862,23.423,72.123,28.138
			c70.932,9.676,131.795-35.682,173.359-94.551c10.777-15.281,16.49-26.154,16.49-26.154
			c-94.364-35.827-243.04-121.574-358.795-220.99c-48.75,30.803-139.771,48.053-197.048,51.984
			c-7.228,24.265-4.745,15.79-11.624,39.707c17.192,29.862-12.665,105.377-25.935,134.003
			C897.804,3297.584,892.835,3293.275,903.319,3302.144z"/>
		<path fill="#DE6E41" d="M825.243,3304.186c4.473,4.159,1.484,1.468,17.653,15.823l39.509-44.413
			c-15.466-13.728-12.648-11.184-17.062-15.291L825.243,3304.186z"/>
		<path fill="#E8D1A0" d="M971.55,3529.047l-18.404-23.771c-10.252,3.876-14.155,5.262-23.956,8.809
			c-6.163-12.825-19.219-26.207-34.248-29c-19.048-3.358-57.182,44.024-68.467,59.537c-14.721,23.767,6.814,55.946,34.813,73.568
			C922.568,3656.462,947.044,3588.661,971.55,3529.047z"/>
		<path fill="#FF6D00" d="M920.346,3564.402c6.433-11.146,20.298-17.176,39.993-8.015c27.158,43.617-8.629,100.904-47.08,107.474
			c-53.257,8.979-126-54.718-107.48-116.308C895.554,3594.68,898.479,3602.655,920.346,3564.402z"/>
		<path fill="#FFB680" d="M953.859,3636.154c-42.34,61.255-122.918,10.697-142.281-32.576
			C836.376,3636.944,901.378,3680.762,953.859,3636.154z"/>
		<path fill="#6F1E51" d="M1058.872,3371.712c29.42,20.394,61.726,41.871,92.671,60.385
			c-64.461,148.194-217.362,130.378-204.31,66.754C955.515,3457.891,989.636,3455.285,1058.872,3371.712z"/>
		<path fill="#E8D1A0" d="M912.457,3330.777c-10.685-12.219-23.855-13.685-27.387-17.845c-2.831-3.336,5.426-6.656,3.579-10.735
			c-1.766-4.122-16.654-4.566-19.244,0.156c-2.563,4.685-5.523,22.042-0.137,30.04c4.344,6.475,19.324,15.556,25.957,19.14
			c8.091,0.064,5.313,0.072,19.869-0.082C913.11,3336.636,913.473,3339.544,912.457,3330.777z"/>
		<path fill="#6F1E51" d="M946.53,3510.126c-3.239-12.49,0.596-86.455,1.779-104.882c-30.827-30.139-51.398-51.846-53.086-53.71
			l17.233-20.756c13.707,12.59,50.43,44.356,74.449,63.46c12.925,62.421,24.135,104.649,24.135,104.649
			C995.083,3504.81,948.741,3518.817,946.53,3510.126z"/>
		<path fill="#6F1E51" d="M803.12,3544.776c2.361-0.576,21.673,8.553,41.363,18.079c51.034,23.883,50.385,28.461,66.156,7.168
			c6.945-9.419,14.655-22.076,29.83-21.426c15.173,0.626,28.07,9.328,26.786,15.497c-1.346,6.228-7.625,3.359-15.219,0.059
			c-7.635-3.252-13.016,0.868-22.879,7.679c-9.913,6.782-15.889,28.204-31.716,29.131c-16.405,0.829-71.516-28.116-84.235-34.885
			C792.508,3555.218,798.413,3545.897,803.12,3544.776z"/>
		<path fill="#6F1E51" d="M1398.703,3464.685c-52.486-21.407-112.883-52.114-165.188-81.323l9.155-16.161
			c51.082,28.528,111.114,59.108,163.244,80.367L1398.703,3464.685z"/>
		<path fill="#B78B51" d="M1327.643,3589.044c-58.201-25.5-101.654-46.795-158.946-78.82l69.731-124.124
			c50.232,28.084,89.461,47.658,145.799,72.302L1327.643,3589.044z"/>
		<path fill="#CE9A5D" d="M1322.54,3616.5c-0.587-0.257-70.824-28.73-172.606-85.603l22.615-39.923
			c62.792,35.094,101.869,54.39,168.077,83.358L1322.54,3616.5z"/>
	</g>
	<g>
		<path fill="#513F33" d="M589.465,2761.332l21.296-19.486c20.691,18.392,80.96,74.87,72.685,102.071
			c-4.995,16.415-17.18,30.43-34.535,28.929c-16.653-1.407-19.106-9.327-47.871-57.979
			C600.768,2813.866,592.204,2775.95,589.465,2761.332z"/>
		<path fill="#513F33" d="M704.612,2618.891l33.125-18.965c-17.444-38.137-25.701-59.631-31.089-73.127
			c-31.945,77.528-16.003,49.558-33.612,77.293C682.233,2608.602,690.661,2612.448,704.612,2618.891z"/>
		<path fill="#898B8C" d="M534.531,2718.441c3.517-53.208,2.942-65.526,20.299-73.164l127.843-56.369
			c9.852,13.932,5.182,7.533,21.941,29.982c-31.684,20.3-69.912,45.378-102.4,67.286c-9.055,6.348-5.383,14.113-2.237,27.003
			c29.422,121.34,38.744,125.425,4.342,145.76c-9.407,5.567-18.206,8.78-18.206,8.78c-27.075-7.215-17.615-4.648-44.273-12.026
			C528.846,2769.599,532.221,2760.666,534.531,2718.441z"/>
		<path fill="#383C3F" d="M748.631,2464.612c46.68-36.876,47.331-95.512-6.962-117.835c-56.607-23.269-127.561,9.712-136.173,62.172
			C593.54,2477.728,681.904,2517.374,748.631,2464.612z"/>
		<path fill="#4A4E51" d="M662.979,2461.161c30.034,11.34,67.167-2.749,83.945-28.463c41.099-61.843-64.79-100.66-105.719-41.789
			C623.439,2416.659,632.752,2449.451,662.979,2461.161z"/>
		<path fill="#898B8C" d="M707.251,2453.42c42.384-14.613,54.111-63.472,14.087-79.481c-25.399-10.197-57.422-0.63-71.902,20.591
			C625.382,2429.884,661.482,2469.199,707.251,2453.42z"/>
		<path fill="#FF5F00" d="M729.216,2521.503c-45.077,11.887-122.286,19.259-158.272-12.849
			c-38.997-34.921-23.676-115.004,14.828-153.548c42.886,48.316,90.945,94.665,127.577,125.507
			C727.754,2518.432,723.329,2507.146,729.216,2521.503z"/>
		<path fill="#383C3F" d="M814.726,2864.335c80.178,42.208,177.997-66.916,134.259-131.483
			c-46.072-64.515-181.983-10.424-170.847,78.185C781.249,2835.421,795.616,2854.277,814.726,2864.335z"/>
		<path fill="#4A4E51" d="M900.762,2831.397c32.966-24.627,41.661-68.114,16.586-89.369
			c-41.386-36.958-129.333,14.612-108.223,73.13C822.192,2848.849,866.237,2857.189,900.762,2831.397z"/>
		<path fill="#898B8C" d="M855.706,2837.094c28.714,1.929,56.89-19.894,64.5-46.553c18.131-65.447-83.402-68.791-101.961-7.984
			C809.409,2811.769,828.9,2835.492,855.706,2837.094z"/>
		<path fill="#6F1E51" d="M367.278,2614.803c4.893,12.879,7.983,24.511,20.015,32.529c17.582,11.725,44.63,3.735,37.769-13.072
			c-2.753-6.826-1.423-3.407-6.934-17.89c-3.409-8.968-6.818-17.936-6.818-17.936L367.278,2614.803z"/>
		<path fill="#FF6D00" d="M426.375,2637.477c19.074,7.232,50.681-16.691,84.516-43.366c38.897-30.602,46.19-40.498,84.056-46.272
			c35.569-5.414,89.024-1.85,121.034,3.179c15.7,35.822,35.933,81.476,60.831,125.83c-24.323,39.546-62.7,59.266-110.449,56.548
			c-34.17-2.171-37.723-13.996-55.605,8.449c63.52,120.425,97.028,176.241,176,185.831c57.777,6.871,121.888-19.218,158.01-44.135
			c-90.952-113.291-157.125-219.107-215.555-362.034c-57.251,4.673-145.441-21.933-198.577-45.315
			c-17.704,18.136-11.523,11.747-28.752,29.74c0.958,34.094-58.981,86.51-85.208,106.621
			C424.508,2633.141,422.225,2627.31,426.375,2637.477z"/>
		<path fill="#DE6E41" d="M356.286,2602.997c1.866,5.483,3.198,8.844,8.283,22.233l55.613-20.993
			c-4.847-12.756-6.206-16.185-8.003-21.477L356.286,2602.997z"/>
		<path fill="#E8D1A0" d="M263.15,2921.559c34.199,25.244,92.387-29.286,118.577-51.319l-5.363-29.575
			c-15.534-2.003-10.02-1.276-25.257-3.332c0.267-8.368-2.016-20.469-6.837-29.31c-9.165-17.092-20.207-21.172-60.933-6.941
			c-34.104,11.925-62.702,20.098-52.635,66.393C235.206,2888.458,247.431,2910.198,263.15,2921.559z"/>
		<path fill="#FF6D00" d="M359.142,2889.274c4,50.032-53.264,85.805-91.548,73.482c-47.991-15.085-88.409-104.927-41.44-153.021
			c36.627,52.781,20.533,29.873,47.055,67.048c8.499,12.216,23.795,15.802,34.837,8.692
			C318.696,2878.649,337.656,2861.35,359.142,2889.274z"/>
		<path fill="#FFB680" d="M316.449,2956.992c-66.407,34.95-113.973-48.21-111.047-94.899
			C212.227,2905.719,251.168,2971.795,316.449,2956.992z"/>
		<path fill="#6F1E51" d="M531.958,2771.268c26.298,49.843,33.647,61.757,54.159,96.448
			c-126.394,101.965-252.001,13.926-211.948-35.526C400.631,2799.506,431.014,2813.625,531.958,2771.268z"/>
		<path fill="#E8D1A0" d="M421.223,2667.078c-3.794-15.674-14.836-23.248-16.03-28.513c-0.949-4.275,7.889-3.375,8.194-7.867
			c0.345-4.471-12.648-11.777-17.133-8.798c-4.463,2.968-15.067,16.945-14.089,26.568c0.856,7.766,9.966,22.79,14.163,29.003
			c10.704,5.689,6.98,3.748,17.605,9.169C418.299,2674.634,416.741,2678.822,421.223,2667.078z"/>
		<path fill="#6F1E51" d="M368.289,2841.878c3.246-13.197,40.046-75.461,50.173-92.158c-10.194-31.104-18.149-57.726-22.136-72.248
			l24.895-10.393c10.702,29.618,31.931,80.771,36.511,90.803c-16.586,58.51-27.093,103.959-27.093,103.959
			C413.509,2859.488,366.103,2850.644,368.289,2841.878z"/>
		<path fill="#6F1E51" d="M225.143,2806.01c4.336,1.273,47.489,62.249,58.449,74.024c14.017,15.14,38.068-20.376,61.502-6.858
			c13.178,7.582,20.655,21.237,16.54,26.176c-4.129,4.925-8.191-0.622-13.454-7.039c-5.278-6.416-11.96-5.256-23.866-3.787
			c-11.937,1.42-27.139,17.635-41.624,11.128c-13.931-5.99-49.863-57.44-58.512-70.048
			C210.799,2810.385,220.505,2804.791,225.143,2806.01z"/>
		<path fill="#6F1E51" d="M790.078,3011.141c-0.396-0.491-45.69-52.865-108.738-148.658l15.599-10.084
			c40.733,61.893,61.818,90.225,107.468,146.923L790.078,3011.141z"/>
		<path fill="#B78B51" d="M669.464,3088.339c-0.359-0.446-44.523-52.639-104.312-143.445l119.287-77.716
			c29.443,44.558,54.368,80.301,95.743,131.66L669.464,3088.339z"/>
		<path fill="#CE9A5D" d="M652.215,3110.288c-19.453-24.163-53.679-65.21-113.28-155.752l38.533-24.91
			c39.097,59.397,64.096,94.276,110.327,151.692L652.215,3110.288z"/>
	</g>
	<g>
		<path fill="#513F33" d="M400.504,2012.655l27.833-7.337c6.878,17.731,22.94,67.151,24.179,94.629
			c3.063,54.138-61.841,54.18-63.758,18.639c-2.387-37.663-1.895-28.682-2.825-53.153
			C392.389,2040.454,389.716,2050.21,400.504,2012.655z"/>
		<path fill="#513F33" d="M568.703,1939.992l38.115-1.412c1.367-30.485,4.528-60.185,6.369-79.399
			c-67.658,57.24-37.797,36.922-65.49,52.986C560.537,1929.557,557.769,1925.951,568.703,1939.992z"/>
		<path fill="#898B8C" d="M390.999,1918.633c22.534-34.001,6.09-26.707,172.203-15.464c4.246,30.157,3.031,22.117,5.503,36.823
			c-38.554,3.365-83.42,7.791-121.888,12.019c-12.428,1.597-9.848,3.566-34.434,103.641c-9.987,39.38-12.09,48.742-44.102,50.302
			c-10.909,0.537-20.198-0.724-20.198-0.724c-20.404-18.562-13.22-11.87-33.618-31.268
			C343.366,1993.626,344.904,1990.978,390.999,1918.633z"/>
		<path fill="#383C3F" d="M573.625,1781.286c47.491,81.156,195.076,40.031,168.48-40.057
			c-18.321-59.687-119.321-89.468-163.859-33.504C561.511,1729.707,560.272,1757.727,573.625,1781.286z"/>
		<path fill="#4A4E51" d="M623.12,1794.647c55.054,28.653,122.54-19.981,81.978-68.128c-26.215-31.126-80.131-34.529-103.211-4.613
			C583.722,1745.448,592.635,1778.785,623.12,1794.647z"/>
		<path fill="#898B8C" d="M647.789,1794.345c44.639,6.719,77.341-31.108,49.369-63.958c-16.734-19.89-49.337-27.608-73.258-15.072
			C586.231,1735.354,599.968,1787.142,647.789,1794.345z"/>
		<path fill="#FF5F00" d="M635.66,1864.969c-37.665-8.611-93.582-30.995-119.799-61.46c-47.606-54.8,9.902-133.736,69.91-152.635
			c17.476,69.352,32.541,112.668,54.908,170.443C639.715,1828.123,636.13,1859.555,635.66,1864.969z"/>
		<path fill="#383C3F" d="M576.056,2231.778c60.584,36.667,148.568-5.688,155.56-61.734
			c9.454-72.769-109.839-111.652-169.093-53.249C526.327,2153.087,534.651,2207.145,576.056,2231.778z"/>
		<path fill="#4A4E51" d="M643.258,2219.876c45.195-7.089,73.952-48.543,51.456-80.465
			c-26.195-38.857-103.353-36.044-122.214,12.454C558.335,2190.487,594.548,2227.517,643.258,2219.876z"/>
		<path fill="#898B8C" d="M641.955,2211.562c47.623-7.203,68.58-56.219,30.266-80.783c-31.72-20.525-78.768-7.15-89.78,23.492
			C570.318,2187.077,601.449,2217.688,641.955,2211.562z"/>
		<path fill="#6F1E51" d="M271.722,1779.716c-3.487,30.367-2.183,45.447,25.607,54.783c7.786,2.571,15.695-2.715,16.637-10.751
			l4.359-38.116L271.722,1779.716z"/>
		<path fill="#FF6D00" d="M313.573,1827.199c17.326,19.515,75.757,3.683,140.741-7.677c45.514-7.98,120.362,39.041,156.083,65.513
			c-4.077,45.211-5.272,94.735-4.66,140.124c-32.782,19.321-63.839,20.599-89.75,13.532c-57.786-15.548-52.705-48.794-87.649-33.375
			c1.658,129.093,5.365,159.088,22.312,193.298c34.808,71.343,130.425,97.021,207.211,87.797
			c-24.545-103.436-36.76-257.652-22.203-421.442c-52.972-22.357-118.783-87.306-154.897-132.335
			c-24.005,7.863-15.665,5.089-39.185,13.044c-14.374,30.583-92.629,49.39-124.969,54.953L313.573,1827.199z"/>
		<path fill="#DE6E41" d="M267.585,1764.181c-2.376,17.036-1.716,11.833-3.057,23.516l59.007,7.193
			c1.242-10.843,0.638-6.136,2.955-22.723L267.585,1764.181z"/>
		<path fill="#E8D1A0" d="M165.932,2012.328c3.469-11.439,1.683-5.859,9.168-28.607l-20.927-14.666
			c6.674-12.005,10.793-30.873,4.361-44.605c-8.229-17.528-68.728-21.929-88.07-22.379c-27.977,1.375-42.207,38.579-40.479,70.371
			C33.842,2044.12,101.55,2026.391,165.932,2012.328z"/>
		<path fill="#FF6D00" d="M137.144,2018.642c0,0-7.954,19.248-25.903,29.702c-16.77,9.615-86.783,29.392-106.414-38.49
			c-17.053-59.178,13.675-110.779,51.628-123.109c3.073,27.586,9.273,73.52,10.412,81.001c2.06,14.719,13.694,24.977,26.805,23.827
			C106.715,1990.455,130.776,1983.991,137.144,2018.642z"/>
		<path fill="#FFB680" d="M67.722,2058.577c-72.018-0.012-79.902-91.294-54.02-135.221
			C-0.931,1968.789,3.875,2041.641,67.722,2058.577z"/>
		<path fill="#6F1E51" d="M344.985,1994.681c-0.318,25.294,0.608,70.314,3.103,110.548
			c-158.986,31.193-230.116-104.578-171.057-130.012C215.515,1958.625,237.779,1985.392,344.985,1994.681z"/>
		<path fill="#E8D1A0" d="M295.395,1851.029c0.244-1,2.223-11.628-0.344-24.061c-3.483-18.294,6.748-5.979,10.303-11.782
			c2.359-3.802-5.82-16.304-11.17-15.744c-5.35,0.557-21.1,8.03-24.763,16.997c-3.026,7.514-1.826,24.385-0.901,32.241
			l11.263,16.277L295.395,1851.029z"/>
		<path fill="#6F1E51" d="M167.374,1981.043c4.546-5.14,41.43-30.983,87.127-58.167c2.736-16.797,8.045-46.007,14.017-74.195
			l26.875,2.347c-6.36,48.708-8.595,81.494-9.852,97.305c-34.793,35.846-72.259,79.302-72.259,79.302
			C202.448,2019.957,160.979,1988.387,167.374,1981.043z"/>
		<path fill="#6F1E51" d="M57.265,1882.984c0.907,0.803,2.163,6.47,3.584,14.629c15.18,89.828,10.019,87.115,36.793,87.979
			c11.695,0.353,26.501-0.506,34.468,12.318c8.032,12.809,8.627,28.336,2.638,30.784c-5.934,2.429-6.979-4.354-8.745-12.461
			c-1.754-8.113-8.266-10.19-19.477-14.42c-11.174-4.286-32.264,2.966-41.907-9.492c-9.476-12.263-17.514-73.022-19.348-88.949
			C42.673,1880.211,53.661,1879.754,57.265,1882.984z"/>
		<path fill="#6F1E51" d="M461.525,2327.201c-0.172-0.789-17.711-79.521-26.815-182.179l18.502-1.642
			c5.865,66.152,16.641,134.872,26.5,180.042L461.525,2327.201z"/>
		<path fill="#B78B51" d="M318.771,2339.288c-10.042-52.447-19.272-107.584-25.325-175.574l141.767-13.087
			c5.041,56.936,12.855,106.92,23.234,161.097L318.771,2339.288z"/>
		<path fill="#CE9A5D" d="M293.258,2350.672c-11.469-59.854-20.467-112.126-27.451-190.665l45.704-4.056
			c0.843,9.479,4.916,71.829,26.731,185.677L293.258,2350.672z"/>
	</g>
	<g>
		<path fill="#513F33" d="M580.448,1261.737l28.141,6.512c-3.941,29.657-15.839,109.149-42.908,117.708
			c-16.637,5.199-34.582,3.153-43.403-12.046c-8.164-14.228-3.474-20.523,20.686-72.269
			C549.063,1294.801,571.429,1270.916,580.448,1261.737z"/>
		<path fill="#513F33" d="M763.074,1275.874l34.408,16.544c9.448-15.683,17.459-29.488,42.686-67.125
			c-83.018,17.749-48.756,14.907-82.81,16.152C760.724,1262.163,759.518,1254.909,763.074,1275.874z"/>
		<path fill="#898B8C" d="M593.094,1187.19c36.848-21.052,46.555-30.152,63.353-19.769l118.908,73.364
			c-4.443,11.972-1.58,3.832-12.28,35.09c-36.136-15.209-76.947-31.836-113.424-46.198c-10.345-3.856-14.259,2.144-35.7,27.154
			c-49.818,57.238-66.988,75.276-74.39,77.77c-14.145,4.786-37.396-7.338-48.613-15.307c-4.45-11.904-10.221-28.861-15.185-43.292
			C539.363,1217,544.754,1216.075,593.094,1187.19z"/>
		<path fill="#383C3F" d="M947.55,1229.152c74.426-1.909,81.864-86.35,25.938-135.289c-31.638-27.685-69.356-30.371-93.56-18.939
			C802.123,1110.816,851.379,1231.659,947.55,1229.152z"/>
		<path fill="#4A4E51" d="M869.528,1151.995c7.657,31.169,40.32,53.762,71.076,52.963c74.464-1.651,46.062-110.747-25.536-110.902
			C883.279,1094.095,862.042,1120.992,869.528,1151.995z"/>
		<path fill="#898B8C" d="M878.518,1151.551c5.876,24.875,32.26,45.405,59.793,44.93c25.914-0.429,42.049-20.332,36.233-46.104
			c-5.987-26.679-32.019-47.641-57.788-47.481C889.87,1103.097,872.344,1125.313,878.518,1151.551z"/>
		<path fill="#FF5F00" d="M857.317,1240.878c-35.5-30.531-85.121-89.794-79.153-137.712c7.02-52.745,82.118-84.707,134.92-75.141
			c-15.676,64.056-26.506,130.101-31.027,176.541C861.292,1234.537,867.185,1225.859,857.317,1240.878z"/>
		<path fill="#383C3F" d="M763.564,1580.766c42.202-14.126,61.603-53.779,37.504-97.756
			c-34.166-61.271-126.586-79.995-165.705-25.353C588.588,1523.74,676.577,1610.845,763.564,1580.766z"/>
		<path fill="#4A4E51" d="M699.303,1557.716c53.832,18.18,102.73-21.116,75.978-67.866c-17.353-30.178-56.359-45.943-87.077-36.13
			C636.239,1470.193,641.5,1538.195,699.303,1557.716z"/>
		<path fill="#898B8C" d="M702.11,1549.79c34.558,11.911,73.602-4.793,70.076-39.99c-4.385-39.317-63.336-67.014-96.316-38.302
			C651.072,1492.641,661.388,1535.754,702.11,1549.79z"/>
		<path fill="#6F1E51" d="M575.217,995.687c-17.041,24.577-23.536,38.753-2.952,60.375c5.633,5.872,15.27,5,19.72-1.757
			c5.519-8.379,2.445-3.877,21.691-31.641L575.217,995.687z"/>
		<path fill="#FF6D00" d="M590.075,1057.206c4.819,19.716,42.228,32.233,83.644,45.017c48.824,15.058,84.844,11.509,151.794,144.533
			c-20.074,32.184-45.643,73.841-69.226,121.492c-37.765,1.897-65.959-11.444-85.612-29.734
			c-47.71-44.131-21.999-67.428-62.084-70.266c-14.955,28.329-29.799,58.391-50.801,106.414
			c-7.037,16.26-18.675,39.733-19.188,74.985c-1.048,71.977,51.99,126.777,114.917,160.575
			c16.507,8.848,27.917,13.177,27.917,13.177c38.75-129.493,90.545-254.756,175.88-382.521
			c-36.351-44.618-64.432-132.486-75.273-189.349c-24.968-4.275-16.251-2.823-40.826-6.791
			c-27.595,20.266-104.124,0.724-136.141-9.666C595.934,1048.264,599.143,1043.522,590.075,1057.206z"/>
		<path fill="#DE6E41" d="M578.666,979.921c-2.67,3.677-0.537,0.628-13.582,19.436l48.834,33.893
			c12.807-18.471,10.437-15.089,13.123-18.784L578.666,979.921z"/>
		<path fill="#E8D1A0" d="M372.994,1152.298l21.39-21.147c-7.07-13.635-4.583-8.771-11.634-22.731c0,0,5.943-3.798,11.961-10.366
			c25.375-27.4,9.007-44.385-20.482-65.975c-32.356-23.679-42.891-28.619-59.936-22.582c-19.013,6.735-34.584,26.091-43.074,44.062
			C241.374,1117.647,306.63,1134.002,372.994,1152.298z"/>
		<path fill="#FF6D00" d="M344.499,1144.469c-39.9,32.194-101.196,3.736-112.373-33.754c-15.33-51.793,39.113-131.8,102.579-120.819
			c-19.418,51.078-10.631,27.57-28.607,76.699c-5.462,14.786,1.185,28.836,12.631,33.651
			C330.244,1105.093,355.393,1111.014,344.499,1144.469z"/>
		<path fill="#FFB680" d="M264.523,1147.689c-65.806-34.578-25.644-120.533,15.235-145.275
			C249.26,1031.579,214.024,1101.065,264.523,1147.689z"/>
		<path fill="#6F1E51" d="M539.716,1220.01c-12.172,23.07-38.849,75.39-48.763,99.286
			c-154.94-46.082-155.675-200.026-90.907-194.796C441.719,1127.78,448.376,1161.333,539.716,1220.01z"/>
		<path fill="#E8D1A0" d="M562.732,1069.711c10.752-11.955,10.795-25.383,14.445-29.326c2.97-3.213,7.268,4.593,11.081,2.259
			c3.855-2.265,2.537-17.083-2.469-19.091c-5.061-2.01-22.658-2.806-29.83,3.481c-5.909,5.087-13.134,21.041-15.904,28.064
			c0.521,4.981,0.989,8.37,2.48,19.727C553.762,1071.917,557.383,1070.955,562.732,1069.711z"/>
		<path fill="#6F1E51" d="M388.773,1125.167c11.983-4.759,86.764-9.895,104.34-10.89c25.239-32.933,44.382-56.198,46.941-59.181
			l22.676,14.614c-2.797,3.896-32.35,46.299-54.043,81.565c-60.577,20.401-100.992,36.594-100.992,36.594
			C399.34,1171.639,380.546,1128.36,388.773,1125.167z"/>
		<path fill="#6F1E51" d="M337.141,986.918c0.865,2.282-5.897,22.557-12.997,43.261c-17.5,53.512-22.28,53.444,0.842,66.58
			c10.187,5.759,23.682,11.887,24.86,27.036c1.198,15.142-5.883,29.005-12.162,28.477c-6.341-0.581-4.26-7.17-1.894-15.11
			c2.312-7.976-2.426-12.821-10.375-21.794c-7.925-9.026-29.916-12.37-32.738-27.978c-2.779-16.024,18.727-72.899,24.52-87.884
			C325.524,977.654,335.437,982.363,337.141,986.918z"/>
		<path fill="#6F1E51" d="M488.549,1568.567c19.29-64.816,31.443-102.22,60.699-173.8l17.151,7.131
			c-28.797,70.449-40.882,107.575-59.983,171.747L488.549,1568.567z"/>
		<path fill="#B78B51" d="M356.512,1513.144c19.903-66.905,36.308-111.581,58.963-167.36l131.652,54.192
			c-20.179,49.389-35.755,91.878-54.069,153.469L356.512,1513.144z"/>
		<path fill="#CE9A5D" d="M328.647,1511.415c1.501-5.042,19.18-71.934,64.033-181.758l42.367,17.617
			c-26.093,63.879-41.306,106.266-62.347,176.972L328.647,1511.415z"/>
	</g>
	<g>
		<path fill="#513F33" d="M1089.329,680.685l21.913,18.792c-16.115,23.253-64.665,89.395-92.606,84.456
			c-16.996-3.032-32.219-13.366-32.872-30.81c-0.627-17.437,8.763-21.476,51.817-54.487
			C1040.425,697.57,1070.874,686.67,1089.329,680.685z"/>
		<path fill="#513F33" d="M1244.652,777.786l22.83,30.589c33.87-20.778,47.982-28.277,68.887-39.747
			c-81.829-22.536-51.021-9.803-80.824-23.982C1252.099,754.514,1249.041,764.17,1244.652,777.786z"/>
		<path fill="#898B8C" d="M1125.284,620.977c55.18-3.034,65.709-4.49,75.086,11.305l71.416,120.088
			c-13.152,11.936-7.199,6.381-27.133,25.418c-23.978-28.992-53.496-63.914-79.168-93.519c-7.415-8.243-14.729-3.614-27.082,1.041
			c-116.725,43.671-119.761,53.717-144.181,21.887c-6.654-8.664-10.916-17.03-10.916-17.03c3.902-27.706,2.502-18.079,6.617-45.387
			C1074.073,621.492,1082.718,623.802,1125.284,620.977z"/>
		<path fill="#383C3F" d="M1429.698,821.846c67.488,32.555,112.182-38.476,85.468-107.71c-14.307-37.08-44.561-58.522-74.024-60.261
			C1354.916,649.656,1343.814,779.516,1429.698,821.846z"/>
		<path fill="#4A4E51" d="M1434.718,797.176c45.531,22.964,79.376-25.593,59.476-74.693c-8.891-21.938-28.134-39.79-51.315-41.113
			C1384.362,678.123,1376.493,768.524,1434.718,797.176z"/>
		<path fill="#898B8C" d="M1404.469,721.131c-6.301,24.271,7.165,54.82,32.16,67.525c56.045,28.275,78.174-64.591,24.161-92.921
			C1437.314,683.668,1411.282,694.545,1404.469,721.131z"/>
		<path fill="#FF5F00" d="M1344.357,790.392c-17.333-43.509-33.843-119.112-6.392-158.682
			c26.467-38.155,104.969-42.364,154.24-3.933c-49.015,55.749-76.196,93.74-109.152,141.883
			C1346.478,788.994,1357.471,783.039,1344.357,790.392z"/>
		<path fill="#383C3F" d="M1009.068,949.707c6.673,106.701,176.184,144.07,173.092,29.372
			c-1.622-62.444-61.158-119.673-119.506-105.081C1028.38,882.568,1007.152,913.336,1009.068,949.707z"/>
		<path fill="#4A4E51" d="M1057.116,998.198c28.537,29.915,72.692,33.081,90.764,5.734c31.701-46.878-31.19-126.964-85.595-98.659
			C1030.508,922.207,1027.275,966.915,1057.116,998.198z"/>
		<path fill="#898B8C" d="M1063.296,992.464c32.694,34.698,85.301,24.621,83.657-21.196c-0.968-27.761-22.907-55.854-51.205-60.873
			C1051.162,902.534,1027.514,954.488,1063.296,992.464z"/>
		<path fill="#6F1E51" d="M1207.902,442.413c-12.241,6.455-23.27,10.873-29.856,23.806c-8.888,17.659-0.07,45.751,18.99,35.104
			c2.379-1.337-0.59,0.244,32.451-17.186L1207.902,442.413z"/>
		<path fill="#FF6D00" d="M1192.564,503.821c-4.983,20.296,24.428,49.956,53.292,78.659c35.804,35.609,45.887,41.263,56.113,77.821
			c9.676,34.603,12.602,88.21,11.478,120.548c-16.25,9.608-69.969,40.727-117.672,75.646
			c-53.918-24.752-75.582-75.653-68.391-131.854c2.023-15.868-11.753-22.465-16.14-25.166
			c-118.536,82.152-133.831,105.628-146.195,128.32c-39.615,72.783-3.418,164.989,45.576,220.375
			c98.59-101.804,199.27-182.565,333.731-257.781c-11.611-56.511,4.28-147.261,20.95-202.641
			c-20.12-15.337-13.081-10.021-33.002-24.906c-33.768,5.171-93.328-48.367-116.172-71.661
			C1195.552,502.044,1200.607,499.328,1192.564,503.821z"/>
		<path fill="#DE6E41" d="M1218.295,430.092c-8.663,4.311-4.09,1.951-21.067,10.899l27.578,52.659
			c16.304-8.598,11.723-6.24,20.354-10.532L1218.295,430.092z"/>
		<path fill="#E8D1A0" d="M956.173,487.591l28.703-8.876c0.105-15.554,0.054-10.23,0.251-25.474
			c8.275-0.737,20.024-4.433,28.257-10.314c15.775-11.093,18.64-22.452-0.489-61.316c-18.18-36.919-25.117-45.282-42.65-47.75
			c-20.169-2.756-42.467,6.883-58.548,19.111C854.005,396,909.362,443.921,956.173,487.591z"/>
		<path fill="#FF6D00" d="M934.558,467.461c-49.055,9.865-91.609-42.352-83.962-82.031c9.092-48.928,92.963-100.598,146.79-59.527
			c-46.235,41.188-27.204,24.026-60.821,54.767c-11.091,9.904-12.795,25.522-4.408,35.624
			C940.252,426.089,959.65,442.806,934.558,467.461z"/>
		<path fill="#FFB680" d="M862.211,433.223c-42.803-61.87,34.226-118.901,80.72-121.615
			C900.551,323.624,839.663,370.241,862.211,433.223z"/>
		<path fill="#6F1E51" d="M1072.534,624.798c-45.795,31.746-56.753,40.465-89.224,65.371
			c-116.463-113.195-44.137-248.417,9.707-214.659C1028.651,497.843,1018.303,529.682,1072.534,624.798z"/>
		<path fill="#E8D1A0" d="M1162.567,502.299c15.197-5.707,21.213-17.529,26.349-19.374c4.15-1.419,4.312,7.434,8.811,7.2
			c4.478-0.202,10.151-13.991,6.65-18.081c-3.491-4.08-18.628-12.876-28.08-10.778c-7.568,1.784-21.313,12.58-27.059,17.579
			c-4.355,11.338-2.862,7.365-6.972,18.575C1154.716,500.315,1150.372,499.274,1162.567,502.299z"/>
		<path fill="#6F1E51" d="M982.694,470.841c13.492,1.634,80.055,30.808,97.519,38.696c29.415-13.772,54.396-24.685,69.024-30.694
			l13.33,23.454c-28.983,14.67-76.879,41.806-85.706,47.205c-60.129-9.419-106.442-14.366-106.442-14.366
			C970.603,519.176,973.623,469.727,982.694,470.841z"/>
		<path fill="#6F1E51" d="M1000.959,324.45c-0.749,4.446-56.15,54.792-66.363,66.917c-13.339,15.745,24.831,35.323,14.241,60.218
			c-5.929,13.993-18.586,23.042-23.971,19.568c-5.384-3.504-0.383-8.22,5.355-14.207c5.729-6.009,3.771-12.501,0.875-24.141
			c-2.851-11.676-20.777-24.817-16.071-39.972c4.272-14.57,51.008-56.451,62.408-66.503
			C994.875,310.736,1001.608,319.705,1000.959,324.45z"/>
		<path fill="#6F1E51" d="M865.405,909.886c4.706-5.297,55.323-58.815,134.554-125.8l11.885,14.274
			c-68.65,58.037-121.84,111.778-132.988,124.335L865.405,909.886z"/>
		<path fill="#B78B51" d="M774.299,799.387c44.76-45.639,77.025-76.038,129.884-120.748l91.484,109.086
			c-41.639,35.212-73.855,64.363-119.241,110.855L774.299,799.387z"/>
		<path fill="#CE9A5D" d="M750.438,784.889c54.207-55.5,86.425-84.943,141.025-131.116l29.359,35.261
			c-55.415,46.859-86.636,75.769-137.358,127.707L750.438,784.889z"/>
	</g>
	<g>
		<path fill="#513F33" d="M1809.57,402.465l10.62,26.896c-28.62,14.019-98.702,49.08-121.276,31.493
			c-13.728-10.656-22.199-26.679-14.706-42.519c6.803-14.547,14.324-14.55,71.242-23.979
			C1772.554,396.544,1808.569,402.259,1809.57,402.465z"/>
		<path fill="#513F33" d="M1901.67,560.797l5.93,37.725c22.047-1.189,48.404-2.849,79.662-2.948
			c-57.679-54.367-40.665-32.667-60.456-58.848C1911.547,551.229,1917.017,545.989,1901.67,560.797z"/>
		<path fill="#898B8C" d="M1886.697,374.655c53.767,25.604,41.858,1.092,50.877,176.314l-35.905,9.83
			c-26.84-128.377-26.441-128.146-37.13-129.538c-138.3-18.229-144.528-9.155-151.435-49.564
			c-1.846-10.766-1.714-20.149-1.714-20.149c7.87-11.223,6.413-9.245,27.02-37.084
			C1823.979,343.592,1826.679,346.956,1886.697,374.655z"/>
		<path fill="#383C3F" d="M2048.383,557.69c-44.174,50.293-19.653,138.6,31.076,154.296c54.705,17.88,104.924-53.254,90.143-117.321
			C2154.855,531.103,2086.971,513.869,2048.383,557.69z"/>
		<path fill="#4A4E51" d="M2061.346,666.699c29.769,41.18,82.454,14.375,87.638-38.676c2.683-27.457-9.587-50.217-26.436-60.276
			C2071.752,537.93,2023.182,613.978,2061.346,666.699z"/>
		<path fill="#898B8C" d="M2055.983,622.137c-1.301,44.382,39.636,73.09,69.644,41.357c17.756-19.081,21.516-52.373,6.126-74.541
			C2108.045,554.206,2057.419,573.142,2055.983,622.137z"/>
		<path fill="#FF5F00" d="M1984.177,618.501c2.171-20.352,13.71-89.485,46.847-126.244c48.582-53.906,133.967-6.457,160.18,50.971
			c-58.972,23.11-101.519,41.879-162.949,75.092C2010.663,618.082,2020.65,618.043,1984.177,618.501z"/>
		<path fill="#383C3F" d="M1613.384,603.122c-27.634,61.754,19.211,144.655,80.095,147.017
			c71.29,2.016,98.593-121.405,32.297-174.227C1686.719,544.738,1633.774,558.134,1613.384,603.122z"/>
		<path fill="#4A4E51" d="M1633.343,668.381c15.63,54.799,75.636,72.456,99.006,24.048c14.367-29.74,7.057-71.337-19.677-92.199
			C1669.946,566.905,1616.502,609.338,1633.343,668.381z"/>
		<path fill="#898B8C" d="M1641.46,666.187c10.044,36.063,46.647,57.615,72.697,34.986c29.955-25.918,19.181-90.14-23.131-101.038
			C1658.844,591.909,1630.053,625.227,1641.46,666.187z"/>
		<path fill="#6F1E51" d="M2025.478,247.07c-8.023-0.098-6.016-0.074-11.57-0.14c-22.77,0.222-35.726,12.604-38.381,25.504
			l-1.348,6.464c-1.628,7.955,4.565,15.445,12.65,15.343c32.119-0.404,23.943-0.373,38.34-0.194L2025.478,247.07z"/>
		<path fill="#FF6D00" d="M1983.358,294.285c-17.389,19.412,5.581,76.39,24.391,138.661
			c13.401,44.271-24.288,123.724-46.537,162.862c-44.095,1.732-90.415,5.061-139.495,11.979
			c-32.296-42.209-33.029-91.037-6.099-137.642c10.88-18.728,16.557-20.444,4.574-40.784
			c-37.064,3.822-107.413,16.449-131.977,21.726c-57.164,12.461-94.727,46.671-113.281,96.867
			c-16.641,45.02-15.245,104.616-5.811,142.993c136.088-43.87,273.224-70.893,415.053-72.448
			c16.357-56.027,72.31-127.548,113.09-169.659c-6.492-14.172-10.544-22.483-17.672-37.309
			c-32.23-10.323-59.408-85.367-69.514-117.583L1983.358,294.285z"/>
		<polygon fill="#DE6E41" points="2040.391,241.021 2016.704,240.727 2016.605,300.171 2039.507,300.458 		"/>
		<path fill="#E8D1A0" d="M1781.89,169.56l29.551,5.718l12.085-22.618c12.343,5.247,31.568,7.407,44.86-0.962
			c16.481-10.212,13.63-70.731,11.788-89.906c-5.056-29.454-46.829-37.105-74.803-31.999
			C1734.287,42.642,1760.279,107.418,1781.89,169.56z"/>
		<path fill="#FF6D00" d="M1772.166,141.696c-46.678-12.734-61.927-79.478-35.992-111.639
			c33.312-41.29,130.089-43.713,157.548,15.912c-34.484,8.272-19.108,4.438-79.288,19.851c-14.396,3.89-23.213,16.727-20.505,29.6
			C1796.773,109.079,1805.657,131.083,1772.166,141.696z"/>
		<path fill="#FFB680" d="M1724.127,77.661c-8.904-73.944,84.14-88.822,128.138-69.868
			C1803.821-1.209,1733.393,12.84,1724.127,77.661z"/>
		<path fill="#6F1E51" d="M1820.805,345.323c-54.34,6.215-103.404,15.005-109.412,16.228
			c-49.959-153.6,76.053-241.491,108.731-185.424C1841.192,212.243,1817.238,237.728,1820.805,345.323z"/>
		<path fill="#E8D1A0" d="M1957.544,278.94c15.734,1.755,27.196-5.546,32.315-4.764c4.329,0.658,0.354,8.592,4.44,10.441
			c4.053,1.862,15.483-7.827,14.289-13.063c-1.19-5.237-10.48-19.924-19.809-22.431c-7.653-2.071-24.043,0.83-32.099,2.853
			l-14.813,13.225L1957.544,278.94z"/>
		<path fill="#6F1E51" d="M1813.182,167.271c9.258,6.376,52.852,59.336,68.169,79.559c49.871,2.839,34.378,1.743,75.33,5.143
			l0.864,26.963c-22.713-0.082-49.782-0.415-97.783,1.838c-47.416-35.683-87.436-62.352-87.436-62.352
			C1784.67,195.571,1806.586,162.765,1813.182,167.271z"/>
		<path fill="#6F1E51" d="M1897.552,46.304c-2.402,3.484-79.884,23.557-89.839,28.168c-19.134,8.065,5.5,42.965-15.502,59.908
			c-11.06,8.963-27.088,11.987-30.326,6.2c-3.125-5.587,3.495-7.476,11.346-10.247c7.875-2.608,9.175-9.24,12.048-20.864
			c2.93-11.632-6.8-31.661,4.443-42.798c11.229-11.105,70.438-26.074,86.167-29.754
			C1898.575,31.506,1900.328,42.308,1897.552,46.304z"/>
		<path fill="#6F1E51" d="M1504.792,501.019c67.267-21.857,103.6-32.469,177.549-48.653l3.863,18.168
			c-73.194,16.016-109.238,26.564-175.453,48.077L1504.792,501.019z"/>
		<path fill="#B78B51" d="M1475.482,360.849c56.156-18.11,103.501-31.677,171.259-46.431l30.106,139.15
			c-54.86,11.939-99.508,23.889-157.046,42.577L1475.482,360.849z"/>
		<path fill="#CE9A5D" d="M1461.089,336.924c70.564-22.898,115.626-35.083,185.993-50.418l9.542,44.88
			c-0.577,0.126-68.762,12.63-181.096,49.09L1461.089,336.924z"/>
	</g>
	<g>
		<path fill="#513F33" d="M2576.876,490.758l-3.052,28.718c-28.564-0.152-110.23-2.458-122.031-28.285
			c-7.171-15.761-7.264-34.134,6.69-44.557c13.981-10.41,22.867-4.949,74.251,11.732
			C2535.866,460.471,2565.399,481.928,2576.876,490.758z"/>
		<path fill="#513F33" d="M2584.934,673.735l-12.262,36.155c39.152,17.513,53.959,25.215,71.725,34.23
			c-27.524-80.06-20.652-46.576-25.995-80.232C2598.188,669.756,2605.334,667.652,2584.934,673.735z"/>
		<path fill="#898B8C" d="M2658.084,501.901c35.428,47.873,37.315,18.751-36.857,179.77c-12.588-3-4.332-1.186-36.294-7.934
			c36.296-127.577,35.99-126.003,27.288-132.034c-113.167-79.962-123.949-74.55-111.144-114.179
			c3.354-10.396,7.822-18.655,7.822-18.655c16.258-8.244,23.735-11.835,41.127-20.312
			C2605.521,435.087,2621.459,452.361,2658.084,501.901z"/>
		<path fill="#383C3F" d="M2687.849,756.403c-33.872,30.899-46.145,85.919-24.863,122.455
			c39.482,67.816,155.412,1.602,145.318-83.752C2801.305,735.868,2735.163,713.313,2687.849,756.403z"/>
		<path fill="#4A4E51" d="M2720.639,764.404c-30.005,11.357-48.493,46.508-44.021,76.935
			c10.635,73.605,115.388,32.381,106.98-38.736C2779.646,770.755,2750.205,753.301,2720.639,764.404z"/>
		<path fill="#898B8C" d="M2722.165,773.262c-24.363,9.016-41.152,37.932-37.406,64.766c3.606,26.252,25.765,39.087,50.066,30.406
			c26.238-9.395,43.427-38.044,40.193-63.075C2771.567,778.507,2747.287,764.034,2722.165,773.262z"/>
		<path fill="#FF5F00" d="M2630.999,763.027c26.335-39.403,79.053-95.334,127.122-95.201c47.758,0.297,94.386,63.909,90.765,124.872
			c-64.023-7.729-131.347-10.655-178.896-9.51C2638.061,766.351,2646.967,770.946,2630.999,763.027z"/>
		<path fill="#383C3F" d="M2340.042,562.958c-73.014,18.027-89.899,128.521-39.132,173.508
			c74.407,66.059,181.813-87.433,101.787-157.875C2384.304,562.468,2361.052,557.789,2340.042,562.958z"/>
		<path fill="#4A4E51" d="M2297.526,644.71c-8.333,40.287,13.943,78.58,46.728,77.833c55.045,0.252,87.42-96.443,32.536-126.497
			C2344.434,579.374,2306.196,602.791,2297.526,644.71z"/>
		<path fill="#898B8C" d="M2327.438,610.528c-22.694,17.587-29.384,52.592-17.4,77.619c29.876,61.072,107.799-3.989,81.506-61.645
			C2378.758,598.64,2348.35,594.053,2327.438,610.528z"/>
		<path fill="#6F1E51" d="M2840.364,453.409c-27.085-14.294-41.618-18.338-60.302,4.344c-5.149,6.301-3.12,15.763,4.125,19.365
			c8.478,4.148,14.155,7.234,34.031,17.721L2840.364,453.409z"/>
		<path fill="#FF6D00" d="M2781.077,475.572c-18.651,7.032-26.584,44.056-34.596,88.465c-9.065,50.373-1.265,85.594-125.136,168.136
			c-34.346-16.02-78.987-36.446-128.864-53.977c-6.458-37.232,3.363-66.837,19.134-88.572c37.827-52.466,64.25-30.075,62.21-70.146
			c-45.34-17.246-103.417-35.639-132.757-43.565c-54.516-12.713-101.335,0.455-139.496,34.98
			c-36.615,33.276-62.241,86.559-71.462,124.057c142.433,23.74,272.426,63.151,400.89,128.075
			c39.98-41.565,123.88-80.031,178.836-97.571c1.244-25.275,0.852-16.511,1.837-41.352c-23.454-25.03-13.237-103.391-6.808-136.309
			C2790.344,480.136,2795.423,482.749,2781.077,475.572z"/>
		<path fill="#DE6E41" d="M2856.438,454.928c-3.954-2.185-0.725-0.466-20.941-11.139l-27.758,52.565
			c19.832,10.466,16.237,8.549,20.235,10.759L2856.438,454.928z"/>
		<path fill="#E8D1A0" d="M2660.364,271.568l23.602,18.657c8.498-5.856,12.294-8.363,21.154-14.283
			c9.054,10.956,24.951,20.839,40.248,19.96c19.319-1.293,45.004-56.457,52.233-74.192c8.62-26.676-20.154-52.738-51.535-63.123
			C2678.973,136.471,2670.474,203.455,2660.364,271.568z"/>
		<path fill="#FF6D00" d="M2664.677,242.337c-40.344-38.574-18.474-148.364,85.119-113.953
			c44.168,14.679,68.821,53.384,67.217,85.537c-29.25-7.218-81.606-20.784-90.231-19.821
			C2690.018,198.707,2716.81,252.513,2664.677,242.337z"/>
		<path fill="#FFB680" d="M2651.764,163.332c26.427-69.738,116.986-39.767,146.143-2.447
			C2762.872,132,2690.441,109.613,2651.764,163.332z"/>
		<path fill="#6F1E51" d="M2613.364,445.257c-47.045-17.885-85.141-30.618-104.465-36.383
			c26.995-159.791,179.8-177.965,182.352-113.816C2693.052,336.825,2660.557,347.446,2613.364,445.257z"/>
		<path fill="#E8D1A0" d="M2765.359,449.935c13.199,9.255,26.49,7.645,30.861,10.805c3.549,2.561-3.683,7.769-0.905,11.273
			c2.719,3.546,17.266,0.46,18.658-4.754c1.379-5.246,0.07-22.81-7.059-29.193c-5.759-5.248-22.453-10.497-29.786-12.406
			c-4.868,1.113-8.259,2.008-19.287,4.843C2761.837,440.663,2763.433,444.648,2765.359,449.935z"/>
		<path fill="#6F1E51" d="M2689.228,283.929c6.181,11.506,20.135,83.807,23.458,102.277c35.354,20.824,61.104,37.223,64.443,39.451
			l-11.769,24.275c-10.473-5.748-55.82-29.271-87.519-43.798c-26.045-54.386-48.578-95.833-48.578-95.833
			C2642.419,301.572,2684.852,275.77,2689.228,283.929z"/>
		<path fill="#6F1E51" d="M2820.267,215.977c-2.162,1.135-23.123-3.128-44.552-7.673c-55.364-10.988-55.823-15.575-66.02,8.868
			c-4.483,10.81-8.93,24.947-23.834,27.957c-14.905,3.057-29.511-2.351-29.752-8.639c-0.183-6.391,6.589-5.063,14.766-3.686
			c8.203,1.325,12.44-3.966,20.387-12.945c8.002-8.962,8.651-31.193,23.812-35.89c15.784-4.726,76.255,10.19,90.267,13.73
			C2828.066,203.316,2824.579,213.752,2820.267,215.977z"/>
		<path fill="#6F1E51" d="M2261.151,436.838c43.701,7.24,89.606,14.628,179.914,39.071l-4.996,17.89
			c-73.316-19.845-111.646-27.652-177.793-38.61L2261.151,436.838z"/>
		<path fill="#B78B51" d="M2300.162,299c64.798,10.746,116.607,22.863,173.272,38.187l-37.8,137.26
			c-50.677-13.615-96.236-24.654-158.913-35.021L2300.162,299z"/>
		<path fill="#CE9A5D" d="M2298.496,271.151c74.607,12.362,121.925,23.515,188.179,41.441l-12.341,44.193
			c-66.005-17.86-111.743-28.506-183.233-40.35L2298.496,271.151z"/>
	</g>
	<g>
		<path fill="#513F33" d="M3214.838,926.013l-16.029,24.014c-25.177-13.312-96.521-53.464-94.955-81.825
			c1.012-17.453,9.428-33.513,26.652-36.332c17.03-2.674,22.031,5.757,60.287,44.934
			C3192.845,880.647,3208.185,911.633,3214.838,926.013z"/>
		<path fill="#513F33" d="M3137.107,1091.894l-27.624,26.345c25.771,32.52,38.213,50.313,47.784,63.659
			c12.488-83.91,3.566-51.843,14.061-83.164C3161.066,1096.512,3152.019,1094.792,3137.107,1091.894z"/>
		<path fill="#898B8C" d="M3278.421,954.551c9.713,53.972,12.31,64.735-2.182,75.897l-110.624,85.345
			c-12.641-10.951-6.673-5.927-28.51-23.898c90.428-95.293,90.273-95.109,85.42-104.345
			c-30.624-59.584-61.921-113.246-61.39-125.571c0.589-15.001,20.161-32.422,31.554-40.072c9.856,0.014,40.616,0.965,45.857,1.121
			C3271.8,904.062,3270.418,912.074,3278.421,954.551z"/>
		<path fill="#383C3F" d="M3157.545,1227.943c-50.321,34.184-64.235,101.135-18.52,127.759
			c54.327,32.613,149.132-13.059,144.878-83.564C3279.767,1215.487,3213.332,1190.043,3157.545,1227.943z"/>
		<path fill="#4A4E51" d="M3140.838,1283.036c-17.234,47.879,34.973,75.833,81.39,50.086c20.77-11.521,36.122-32.93,34.587-55.937
			C3252.935,1218.855,3162.306,1221.514,3140.838,1283.036z"/>
		<path fill="#898B8C" d="M3212.677,1243.829c-24.861-3.331-53.568,13.714-63.146,40.08c-21.259,59.028,73.504,69.968,95.199,12.799
			C3253.844,1271.965,3239.93,1247.401,3212.677,1243.829z"/>
		<path fill="#FF5F00" d="M3136.625,1192.445c41.013-22.391,114.134-47.958,156.782-25.442
			c42.267,22.311,53.895,100.541,22.599,152.694c-63.679-43.498-104.525-65.509-154.113-91.3
			C3138.574,1194.81,3145.625,1204.753,3136.625,1192.445z"/>
		<path fill="#383C3F" d="M2851.359,983.97c-1.211,36.268,17.895,61.705,47.097,68.869
			c73.731,18.006,159.812-75.662,113.627-144.925C2967.423,840.884,2854.05,891.476,2851.359,983.97z"/>
		<path fill="#4A4E51" d="M2895.74,932.085c-36.227,43.997-16.446,103.669,36.687,95.27c34.848-5.571,63.001-36.828,64.646-68.62
			C2999.984,904.442,2934.624,884.86,2895.74,932.085z"/>
		<path fill="#898B8C" d="M2902.174,937.529c-30.556,36.647-14.315,87.568,31.06,80.523c27.548-4.294,52.706-29.534,54.298-58.131
			C2990.092,914.437,2935.318,897.779,2902.174,937.529z"/>
		<path fill="#6F1E51" d="M3465.625,1015.05c-7.868-11.356-13.607-21.815-27.228-26.757c-19.866-7.154-44.225,7.077-33.531,21.749
			c1.993,2.646,3.93,5.487,11.016,15.702c5.464,7.883,10.927,15.765,10.927,15.765L3465.625,1015.05z"/>
		<path fill="#FF6D00" d="M3402.821,1007.236c-21.049-2.539-47.708,31.604-71.658,62.378c-31.033,39.834-35.431,50.533-70.49,65.088
			c-35.206,14.615-89.9,23.455-118.302,25.888c-27.957-36.416-67.975-85.744-89.316-107.794
			c18.158-56.66,66.137-84.074,122.708-83.723c15.996,0.111,20.896-14.372,23.047-19.044
			c-91.167-102.765-137.506-148.146-215.286-138.562c-53.758,6.541-109.968,43.317-142.962,80.483
			c60.958,42.193,185.308,148.698,296.065,300.494c54.712-18.319,146.76-13.455,203.733-3.597
			c12.792-21.831,8.373-14.212,20.732-35.772c-9.186-32.759,36.404-98.06,57.118-123.972
			C3405.397,1010.627,3408.715,1015.325,3402.821,1007.236z"/>
		<path fill="#DE6E41" d="M3479.11,1023.875c-5.246-7.96-2.14-3.397-13.358-19.591l-48.949,33.727
			c10.75,15.514,7.668,10.974,12.909,18.931L3479.11,1023.875z"/>
		<path fill="#E8D1A0" d="M3390.554,770.645l12.238,27.435c15.193-1.752,9.773-1.148,25.33-2.827
			c1.693,7.999,6.719,19.265,13.613,26.815c12.903,14.075,24.072,16.087,60.809-7.874c30.597-19.965,56.061-34.821,35.251-77.009
			c-6.604-13.613-17.84-28.025-31.187-37.349C3460.673,667.741,3422.512,726.858,3390.554,770.645z"/>
		<path fill="#FF6D00" d="M3407.948,746.77c-20.233-60.016,66.974-144.851,137.275-50.718
			c27.634,37.001,22.024,76.904,10.757,96.034c-62.663-55.223-34.551-30.169-61.646-53.759c-11.149-9.823-26.893-9.604-35.897-0.08
			C3449.9,747.232,3435.518,768.81,3407.948,746.77z"/>
		<path fill="#FFB680" d="M3433.266,670.852c56.267-49.896,122.161,19.725,130.377,65.476
			C3546.175,694.503,3492.155,641.393,3433.266,670.852z"/>
		<path fill="#6F1E51" d="M3268.295,902.64c-43.638-49.179-74.604-79.764-75.606-80.729c98.124-128.803,241.646-74.38,214.276-16.15
			C3389.172,843.582,3355.134,838.184,3268.295,902.64z"/>
		<path fill="#E8D1A0" d="M3400.728,977.273c7.422,14.267,19.983,19.021,22.394,23.824c1.925,3.936-6.856,5.173-6.078,9.608
			c0.739,4.421,15.108,8.389,18.747,4.421c3.626-3.955,10.548-20.049,7.312-29.166c-2.688-7.319-15.103-19.694-20.696-24.744
			c-11.763-2.955-7.668-1.96-19.285-4.676C3401.759,969.217,3402.262,964.83,3400.728,977.273z"/>
		<path fill="#6F1E51" d="M3410.365,794.951c-0.009,13.471-20.792,82.556-26.72,101.452c18.712,29.989,32.113,52.922,38.764,64.812
			l-21.678,16.057c-17.825-26.681-50.858-71.472-57.169-79.383c2.15-60.731,1.49-107.379,1.49-107.379
			C3358.516,788.952,3410.314,785.607,3410.365,794.951z"/>
		<path fill="#6F1E51" d="M3557.853,795.454c-3.304-0.117-29.687-22.667-60.073-46.817c-18.158-14.372-19.778-18.685-38.29-3.317
			c-8.989,7.495-19.489,17.951-34.082,13.721c-14.604-4.199-25.064-15.709-22.303-21.433c2.997-6.117,9.101-0.632,14.759,3.593
			c6.647,4.967,12.856,2.244,24.061-2.027c11.246-4.231,22.146-23.606,37.747-20.753c15.834,3.039,61.625,43.348,73.487,53.921
			C3570.715,787.781,3562.654,795.515,3557.853,795.454z"/>
		<path fill="#6F1E51" d="M2960.431,731.193c46.544,33.922,98.551,78.96,141.016,118.499l-12.747,13.51
			c-41.684-38.813-93.369-83.609-139.373-117.119L2960.431,731.193z"/>
		<path fill="#B78B51" d="M3059.219,627.479c54.253,41.681,87.731,70.197,135.443,114.487l-97.337,103.897
			c-43.005-40.035-75.654-67.78-124.337-105.1L3059.219,627.479z"/>
		<path fill="#CE9A5D" d="M3070.753,602.048c59.112,45.329,92.532,73.558,147.066,124.314l-31.488,33.373
			c-0.434-0.404-48.911-48.752-143.24-121.08L3070.753,602.048z"/>
	</g>
	<g>
		<path fill="#513F33" d="M3578.115,1607.405l-25.383,13.787c-16.089-23.861-60.614-92.028-45.967-116.528
			c8.949-14.877,23.909-25.325,40.485-19.782c16.367,5.559,16.915,15.523,32.466,67.797
			C3579.699,1560.174,3578.809,1594.128,3578.115,1607.405z"/>
		<path fill="#513F33" d="M3432.048,1717.894l-36.733,10.427c4.351,23.81,7.476,40.063,12.504,78.511
			c55.831-75.985,24.597-40.6,51.284-66.96C3442.839,1726.567,3448.612,1731.255,3432.048,1717.894z"/>
		<path fill="#898B8C" d="M3609.583,1696.446c-13.209,37.84,1.014,27.277-163.463,55.838c-3.403-8.856-0.703-2.174-14.074-34.39
			c122.655-41.498,124.13-41.459,124.173-52.47c-0.395-141.445-6.327-145.155,30.924-156.312
			c10.463-3.139,19.797-4.148,19.797-4.148c8.143,4.261,36.41,20.266,40.068,22.332
			C3639.232,1609.297,3634.929,1621.984,3609.583,1696.446z"/>
		<path fill="#383C3F" d="M3324.91,1875.108c-54.547,50.602-4.39,119.072,70.233,118.667c34.551-0.188,68.599-16.852,82.535-47.955
			C3512.355,1868.405,3396.662,1809.075,3324.91,1875.108z"/>
		<path fill="#4A4E51" d="M3388.893,1870.169c-37.951,3.641-66.772,34.076-56.804,63.699
			c16.338,50.627,112.045,50.134,122.644-6.301C3460.656,1893.896,3428.875,1866.333,3388.893,1870.169z"/>
		<path fill="#898B8C" d="M3427.975,1887.468c-27.877-19.392-71.843-8.174-84.879,19.945c-19.715,42.53,50.319,76.022,88.449,41.891
			C3452.381,1930.611,3449.282,1902.3,3427.975,1887.468z"/>
		<path fill="#FF5F00" d="M3384.662,1806.53c43.76-0.628,109.796,9.296,141.901,40.222c42.61,41.94,9.435,124.562-42.401,156.238
			c-29.251-53.768-54.2-97.44-94.01-152.877C3387.105,1823.308,3388.274,1832.643,3384.662,1806.53z"/>
		<path fill="#383C3F" d="M3355.216,1437.031c-101.958-31.469-197.206,113.596-88.969,151.151
			c58.691,20.503,133.552-14.521,140.688-74.331C3411.115,1478.871,3389.948,1448.117,3355.216,1437.031z"/>
		<path fill="#4A4E51" d="M3292.832,1464.782c-37.937,16.022-56.774,56.1-37.601,82.659
			c32.718,46.333,129.729,15.475,122.615-45.008C3373.244,1466.327,3332.231,1448.142,3292.832,1464.782z"/>
		<path fill="#898B8C" d="M3337.92,1470.019c-27.395-8.731-59.981,5.702-73.781,29.728c-33.332,59.092,64.401,86.588,97.019,32.113
			C3376.698,1505.855,3363.718,1478.03,3337.92,1470.019z"/>
		<path fill="#6F1E51" d="M3758.383,1803.123c-1.956-17.081-1.832-44.089-37.774-47.17c-8.104-0.663-14.761,6.381-13.642,14.394
			c2.725,19.503,1.577,10.465,4.738,38.069L3758.383,1803.123z"/>
		<path fill="#FF6D00" d="M3706.487,1766.906c-16.323-11.361-51.302,3.101-92.499,21.743
			c-45.886,20.766-70.818,47.831-209.441-7.586c-0.232-1.401-11.246-72.786-28.67-136.756c27.002-26.452,56.95-35.169,83.792-34.519
			c64.969,1.376,61.181,35.859,93.063,11.406c-33.495-137.382-55.251-207.263-147.445-229.026
			c-50.581-11.905-110.041-0.797-142.656,11.573c58.937,126.731,101.125,252.294,122.034,402.787
			c56.725,9.31,136.498,56.585,181.859,91.88c14.445-8.927,22.026-13.56,35.113-21.985c6.231-33.086,80.083-70.706,108.353-83.008
			C3708.821,1783.241,3709.61,1789.259,3706.487,1766.906z"/>
		<polygon fill="#DE6E41" points="3766.265,1817.213 3763.576,1793.652 3704.545,1800.645 3707.146,1823.412 		"/>
		<path fill="#E8D1A0" d="M3805.963,1551.737l-1.988,30.026c14.325,5.505,9.293,3.535,23.794,9.303
			c-3.584,12.58-3.564,31.628,6.416,44.462c11.998,15.171,71.965,5.018,90.7,0.897c26.81-8.029,31.983-46.487,22.75-78.255
			C3927.333,1490.649,3868.642,1520.983,3805.963,1551.737z"/>
		<path fill="#FF6D00" d="M3867.733,1559.249c-12.218,4.083-26.58-0.606-35.251-20.553c8.627-50.908,73.445-69.812,106.487-49.275
			c44.087,27.54,59.684,123.741,3.325,158.567C3906.547,1553.057,3909.408,1545.13,3867.733,1559.249z"/>
		<path fill="#FFB680" d="M3890.194,1483.226c71.566-17.614,99.19,71.931,84.983,118.924
			C3978.748,1553.544,3954.732,1484.55,3890.194,1483.226z"/>
		<path fill="#6F1E51" d="M3636.271,1611.625c-12.387-50.75-24.846-93.444-29.335-106.658
			c146.518-68.294,249.142,46.452,197.23,85.53C3770.802,1615.672,3743.521,1594.976,3636.271,1611.625z"/>
		<path fill="#E8D1A0" d="M3718.731,1739.407c0.1,3.169,1.082,8.76,1.691,11.878c1.703,8.723,6.962,15.276,6.849,19.67
			c-0.108,4.377-8.487,1.378-9.809,5.656c-1.311,4.094,9.515,14.488,14.608,12.645c5.269-1.902,18.613-12.778,19.939-22.37
			c1.142-8.191-4.827-26.965-6.614-31.57l-14.993-13.12L3718.731,1739.407z"/>
		<path fill="#6F1E51" d="M3812.143,1582.523c-3.386,6.808-41.365,48.68-70.866,77.355c2.73,39.229,1.926,25.222,4.121,75.439
			l-26.666,4.09c-3.97-32.277-7.168-59.672-13.665-96.901c29.736-51.769,51.336-94.386,51.336-94.386
			C3772.407,1554.32,3816.244,1574.558,3812.143,1582.523z"/>
		<path fill="#6F1E51" d="M3942.442,1651.835c-2.159-1.136-10.513-20.816-18.899-41.041c-22.482-51.416-18.53-54.867-44.816-49.31
			c-11.445,2.445-25.609,6.807-36.536-3.758c-10.942-10.545-14.825-25.628-9.78-29.397c5.134-3.772,7.943,2.543,11.436,10.06
			c3.559,7.507,10.318,7.993,22.218,9.44c11.917,1.503,30.595-10.582,43.058-0.763c12.597,10.042,34.333,66.985,39.929,82.103
			C3957.265,1651.074,3946.757,1654.115,3942.442,1651.835z"/>
		<path fill="#6F1E51" d="M3443.351,1316.843c0.255,0.546,32.907,65.283,69.895,170.32l-17.564,6.041
			c-24.605-69.877-39.135-104.176-69.07-168.311L3443.351,1316.843z"/>
		<path fill="#B78B51" d="M3578.936,1270.737c27.562,59.037,46.08,105.267,66.898,164.341l-134.464,46.783
			c-19.028-54.02-36.147-96.753-61.352-150.714L3578.936,1270.737z"/>
		<path fill="#CE9A5D" d="M3600.932,1253.551c0.257,0.55,31.777,62.408,72.664,178.471l-43.389,14.922
			c-23.636-67.102-40.181-108.259-70.753-173.776L3600.932,1253.551z"/>
	</g>
</g>
</svg>
